{"glyphs":{"0":{"ha":899,"x_min":21,"x_max":886,"o":"m 874 613 q 863 381 886 496 q 785 176 840 267 q 642 33 729 86 q 438 -14 554 -21 q 287 24 354 -8 q 169 110 219 57 q 85 232 118 163 q 36 380 51 301 q 22 542 21 458 q 44 707 24 625 q 147 915 76 836 q 304 1024 217 993 q 487 1042 392 1056 q 663 975 582 1029 q 802 829 744 921 q 874 613 860 738 m 397 383 q 428 353 410 364 q 465 343 446 343 q 501 352 483 343 q 529 382 518 361 q 551 449 543 408 q 560 533 560 490 q 555 617 561 576 q 532 682 549 657 q 501 710 519 701 q 462 719 482 719 q 424 707 442 718 q 399 675 407 696 q 381 610 388 650 q 373 528 374 571 q 378 446 372 485 q 397 383 383 407 z "},"1":{"ha":533,"x_min":-22,"x_max":507,"o":"m 139 -19 q 126 -19 136 -19 q 114 -18 117 -19 q 101 -10 107 -15 q 93 3 96 -4 q 90 24 90 8 q 90 56 89 39 q 91 89 90 74 q 92 111 92 104 q 113 317 99 215 q 151 518 128 418 q 150 522 151 521 q 147 525 149 522 q 116 575 132 550 q 81 622 100 600 q 15 681 53 654 q -1 693 7 688 q -15 707 -10 699 q -17 734 -22 719 q 0 757 -11 749 q 54 799 28 778 q 107 844 81 821 q 171 912 140 876 q 229 988 201 947 q 252 1023 240 1004 q 283 1051 264 1042 q 317 1058 299 1060 q 354 1053 336 1056 q 389 1047 372 1050 q 424 1043 406 1044 q 448 1042 435 1043 q 474 1039 461 1042 q 495 1030 486 1036 q 506 1013 504 1024 q 506 993 507 1007 q 502 963 504 979 q 498 933 500 947 q 496 913 496 918 q 467 659 476 786 q 460 404 458 532 q 469 220 463 313 q 497 39 475 128 q 501 24 500 32 q 500 8 503 15 q 481 -13 497 -7 q 449 -18 464 -19 q 294 -14 371 -15 q 139 -19 217 -12 z "},"2":{"ha":851,"x_min":17,"x_max":828,"o":"m 786 33 q 731 9 765 18 q 653 -6 696 0 q 563 -12 610 -11 q 471 -13 515 -14 q 388 -10 426 -12 q 325 -6 350 -8 q 235 1 283 -1 q 147 15 188 4 q 80 49 107 26 q 51 114 53 72 q 49 206 50 151 q 56 315 49 261 q 80 415 63 369 q 131 478 97 460 q 213 513 161 494 q 314 553 264 531 q 402 602 364 575 q 444 664 440 629 q 440 690 446 678 q 424 708 435 703 q 397 710 413 714 q 364 690 382 707 q 342 668 356 683 q 315 638 329 653 q 286 612 300 622 q 261 603 272 601 q 210 628 240 606 q 148 678 179 650 q 88 733 117 706 q 43 771 60 760 q 24 790 29 781 q 17 809 18 800 q 18 824 17 818 q 19 831 19 829 q 114 946 56 897 q 242 1022 172 994 q 387 1056 311 1049 q 534 1047 463 1063 q 668 992 606 1031 q 774 890 731 953 q 824 752 819 824 q 803 612 828 681 q 728 481 778 543 q 614 371 678 418 q 527 322 574 342 q 436 278 481 301 q 541 283 489 276 q 644 300 593 289 q 678 309 658 303 q 719 319 699 315 q 758 323 740 324 q 786 311 776 322 q 801 273 796 299 q 808 217 806 247 q 809 159 810 188 q 808 115 808 131 q 806 70 808 94 q 786 33 803 46 z "},"3":{"ha":863,"x_min":19,"x_max":853,"o":"m 665 54 q 560 5 617 22 q 442 -19 503 -12 q 321 -21 382 -25 q 204 -3 260 -17 q 161 8 188 1 q 108 25 135 15 q 59 47 81 35 q 29 75 38 60 q 21 130 19 93 q 28 208 22 167 q 40 287 33 249 q 50 344 47 325 q 68 376 54 369 q 103 381 82 383 q 148 369 124 378 q 197 356 172 361 q 326 343 260 342 q 449 376 393 344 q 475 399 464 385 q 490 428 486 414 q 489 456 493 443 q 468 474 485 468 q 439 476 460 476 q 394 474 418 475 q 350 474 371 474 q 322 479 329 474 q 306 512 310 489 q 301 562 301 535 q 304 615 301 589 q 307 658 307 642 q 325 682 308 674 q 365 696 342 690 q 410 707 388 701 q 446 721 433 713 q 472 760 468 738 q 463 798 475 782 q 426 817 451 814 q 365 796 400 819 q 338 766 354 788 q 306 722 322 744 q 272 681 289 699 q 242 665 256 664 q 169 689 208 669 q 98 736 129 708 q 51 796 67 764 q 49 860 35 828 q 139 988 83 939 q 260 1058 194 1036 q 396 1078 325 1081 q 531 1053 467 1076 q 647 988 594 1029 q 729 891 700 947 q 758 766 758 835 q 719 621 758 697 q 801 542 771 588 q 842 444 831 496 q 846 337 853 392 q 816 230 839 282 q 755 132 793 178 q 665 54 717 86 z "},"4":{"ha":896,"x_min":13,"x_max":876,"o":"m 774 -3 q 759 -23 771 -17 q 732 -31 747 -29 q 700 -33 717 -33 q 669 -31 683 -32 q 583 -28 626 -28 q 497 -31 540 -29 q 463 -30 482 -31 q 425 -26 443 -29 q 392 -15 407 -22 q 372 7 378 -7 q 370 31 369 14 q 372 65 371 47 q 376 100 374 83 q 379 125 378 117 q 394 230 386 178 q 413 335 401 282 q 392 333 401 333 q 371 329 382 332 q 258 321 314 322 q 144 322 201 319 q 106 327 125 324 q 72 340 88 331 q 36 379 50 354 q 18 431 22 404 q 17 504 13 467 q 25 578 21 542 q 48 707 35 643 q 76 835 61 771 q 95 914 86 875 q 115 993 104 953 q 132 1013 119 1007 q 160 1019 144 1018 q 266 1024 213 1022 q 372 1019 319 1025 q 387 1016 376 1018 q 400 1011 397 1014 q 413 994 410 1006 q 414 971 415 983 q 408 945 413 958 q 400 921 404 932 q 369 824 385 872 q 342 728 354 776 q 336 707 339 721 q 331 677 333 693 q 327 647 328 661 q 329 626 326 633 q 335 624 331 624 q 343 624 340 624 q 398 627 371 624 q 453 636 425 631 q 459 638 456 638 q 468 639 463 638 q 478 688 474 664 q 488 738 483 713 q 501 819 494 778 q 513 901 507 861 q 515 927 514 910 q 519 963 517 944 q 524 999 521 982 q 531 1022 526 1015 q 553 1036 538 1033 q 761 1032 657 1042 q 790 1027 775 1029 q 813 1014 806 1025 q 819 993 818 1007 q 818 963 819 979 q 814 933 817 947 q 810 910 811 918 q 791 785 799 847 q 778 658 783 722 q 793 663 785 661 q 810 667 801 664 q 832 672 821 669 q 854 671 843 674 q 867 658 863 668 q 872 637 871 649 q 874 613 874 625 q 874 592 874 600 q 875 517 874 554 q 876 443 876 481 q 873 413 876 428 q 858 389 869 397 q 841 382 853 385 q 816 378 829 379 q 790 377 803 378 q 771 376 778 376 l 761 376 q 762 253 760 314 q 768 132 764 193 q 774 78 771 104 q 778 24 776 51 q 774 -3 778 10 z "},"5":{"ha":718,"x_min":22,"x_max":697,"o":"m 638 167 q 538 53 600 94 q 403 0 476 11 q 256 9 331 -11 q 118 81 181 29 q 90 108 106 90 q 59 148 74 126 q 33 191 44 169 q 22 228 22 213 q 32 252 22 240 q 56 274 42 264 q 87 291 71 283 q 114 304 103 299 q 149 320 129 311 q 190 335 169 329 q 228 340 210 340 q 257 326 246 339 q 309 297 281 301 q 359 303 338 293 q 389 337 381 314 q 381 390 397 360 q 341 419 368 414 q 282 419 314 424 q 217 405 250 415 q 157 389 183 394 q 85 406 113 378 q 53 481 57 435 q 59 730 40 606 q 101 978 78 854 q 138 1003 104 990 q 221 1027 171 1017 q 332 1045 271 1038 q 452 1054 393 1053 q 561 1049 511 1056 q 640 1028 611 1043 q 669 989 663 1015 q 673 930 675 963 q 665 864 671 897 q 654 806 658 831 q 648 774 651 790 q 638 745 644 757 q 622 728 632 733 q 597 731 611 724 q 531 748 574 743 q 440 753 488 753 q 349 747 393 753 q 281 733 306 742 q 276 720 276 732 q 275 694 275 708 q 274 669 275 681 q 269 656 274 657 q 397 688 329 679 q 522 671 464 696 q 632 585 592 642 q 685 457 672 528 q 685 310 697 386 q 638 167 672 233 z "},"6":{"ha":850,"x_min":21,"x_max":865,"o":"m 799 108 q 685 0 753 40 q 540 -53 617 -40 q 383 -55 463 -67 q 234 -8 303 -43 q 114 85 165 28 q 42 222 63 143 q 21 393 21 304 q 40 569 21 482 q 97 738 60 657 q 186 888 133 819 q 217 928 197 903 q 261 979 238 954 q 309 1024 285 1004 q 353 1046 333 1043 q 402 1036 371 1047 q 465 1009 433 1025 q 526 975 497 993 q 572 947 556 957 q 595 931 582 940 q 617 913 608 922 q 628 895 626 904 q 621 879 631 886 q 481 757 544 828 q 382 601 418 686 q 536 628 461 633 q 673 592 611 624 q 780 508 735 561 q 845 390 825 456 q 856 252 865 325 q 799 108 846 179 m 547 385 q 465 416 500 421 q 411 385 431 411 q 388 319 392 358 q 399 249 385 281 q 447 201 414 217 q 533 207 479 186 q 570 238 557 215 q 585 288 583 261 q 578 342 588 315 q 547 385 569 368 z "},"7":{"ha":671,"x_min":-7,"x_max":696,"o":"m 236 -24 q 199 -24 217 -25 q 164 -17 181 -24 q 132 18 139 -6 q 131 68 126 42 q 143 171 135 119 q 163 272 151 222 q 225 506 188 392 q 311 733 263 621 q 314 740 311 735 q 220 732 267 735 q 126 724 174 729 q 103 719 119 722 q 70 713 88 715 q 37 707 53 710 q 15 706 21 704 q -1 718 7 707 q -6 733 -4 722 q -7 756 -7 744 q -7 779 -7 768 q -7 796 -7 790 q -6 852 -6 824 q -6 908 -6 881 q -6 930 -6 917 q -6 957 -7 943 q -3 983 -6 971 q 3 1001 -1 996 q 22 1014 8 1008 q 50 1024 35 1019 q 81 1031 65 1028 q 104 1035 96 1033 q 367 1047 236 1057 q 628 1011 499 1036 q 653 1005 640 1008 q 676 994 665 1001 q 692 974 688 988 q 690 949 696 960 q 685 932 688 940 q 679 915 682 924 q 608 733 642 824 q 550 547 574 643 q 518 397 532 472 q 493 246 504 322 q 481 139 485 193 q 478 31 478 85 q 475 11 478 21 q 465 -6 472 1 q 455 -12 461 -10 q 442 -15 449 -14 q 393 -19 418 -18 q 344 -21 368 -19 q 290 -23 317 -22 q 236 -24 264 -24 z "},"8":{"ha":840,"x_min":18,"x_max":822,"o":"m 607 -37 q 480 -62 547 -57 q 346 -57 413 -67 q 218 -22 279 -47 q 110 46 157 4 q 42 143 61 88 q 29 258 24 199 q 63 376 35 318 q 136 478 90 433 q 38 627 57 547 q 42 783 18 707 q 128 922 67 858 q 272 1021 190 985 q 450 1058 354 1057 q 639 1008 546 1058 q 749 910 710 971 q 795 778 788 849 q 780 634 803 707 q 706 500 757 561 q 797 354 771 436 q 809 194 822 272 q 745 53 796 117 q 607 -37 694 -10 m 336 638 q 371 596 347 603 q 420 599 394 589 q 469 631 446 608 q 502 678 492 653 q 504 724 513 703 q 461 754 496 746 q 405 755 432 761 q 359 732 378 749 q 333 691 340 715 q 336 638 326 667 m 338 265 q 367 221 344 236 q 418 203 389 206 q 478 210 447 200 q 531 239 508 219 q 555 275 549 254 q 556 317 561 296 q 537 356 551 338 q 500 382 522 374 q 434 391 467 394 q 378 372 401 388 q 342 328 354 356 q 338 265 329 300 z "},"9":{"ha":849,"x_min":7,"x_max":836,"o":"m 540 54 q 499 22 525 42 q 444 -18 474 1 q 388 -51 415 -37 q 342 -62 360 -65 q 295 -43 322 -61 q 240 -1 268 -25 q 187 47 211 22 q 150 85 163 71 q 131 105 142 93 q 114 128 121 117 q 107 149 107 139 q 118 163 107 158 q 281 249 204 194 q 414 376 358 303 q 258 387 329 365 q 133 453 186 408 q 48 559 79 497 q 12 689 17 621 q 33 825 7 757 q 122 951 60 893 q 260 1038 182 1008 q 417 1069 338 1067 q 574 1047 497 1071 q 708 973 650 1024 q 801 846 767 922 q 832 668 836 769 q 808 497 829 583 q 749 330 786 410 q 658 179 711 250 q 540 54 606 108 m 303 626 q 376 577 340 581 q 436 595 411 574 q 474 653 461 617 q 479 724 486 690 q 444 781 472 758 q 358 796 415 803 q 315 774 333 793 q 288 728 296 754 q 283 675 279 703 q 303 626 286 647 z "},"\u0000":{"ha":0,"x_min":0,"x_max":0,"o":""},"\r":{"ha":347,"x_min":0,"x_max":0,"o":""}," ":{"ha":347,"x_min":0,"x_max":0,"o":""},"\"":{"ha":585,"x_min":22,"x_max":565,"o":"m 139 683 q 110 683 126 682 q 80 688 94 683 q 55 699 65 692 q 40 719 44 707 q 37 756 36 738 q 35 792 38 774 q 29 836 32 807 q 24 898 26 865 q 23 959 22 931 q 31 1001 24 988 q 44 1020 35 1013 q 64 1032 53 1028 q 90 1033 72 1033 q 129 1033 108 1033 q 168 1031 150 1032 q 194 1028 186 1029 q 228 1019 211 1025 q 253 997 244 1013 q 265 962 264 982 q 265 922 265 942 q 257 844 263 883 q 238 768 251 804 q 226 740 232 754 q 210 715 219 726 q 178 692 197 700 q 139 683 158 685 m 439 678 q 409 677 425 676 q 379 682 393 678 q 354 694 365 686 q 340 714 343 701 q 337 749 336 732 q 335 785 338 767 q 328 830 332 800 q 323 892 325 860 q 322 953 321 924 q 329 996 322 982 q 364 1025 340 1018 q 390 1028 372 1028 q 428 1027 408 1028 q 467 1025 449 1026 q 493 1022 485 1024 q 526 1013 510 1019 q 553 992 543 1006 q 565 956 564 976 q 564 917 565 936 q 556 838 563 876 q 536 763 550 799 q 525 734 531 747 q 508 710 519 721 q 477 687 496 694 q 439 678 458 679 z "},"#":{"ha":1107,"x_min":18,"x_max":1085,"o":"m 899 -17 q 826 -26 865 -29 q 758 -25 792 -25 q 690 -19 725 -25 q 661 -11 675 -17 q 638 7 647 -6 q 624 40 626 21 q 621 78 622 58 q 619 141 619 110 q 618 204 619 172 l 488 204 l 496 117 q 494 84 496 101 q 481 56 492 67 q 458 40 472 44 q 429 35 443 36 q 363 33 396 33 q 296 33 329 33 q 276 33 289 33 q 248 34 263 33 q 220 37 233 35 q 201 43 207 39 q 190 56 194 47 q 183 72 186 64 q 176 117 178 94 q 174 164 175 140 q 173 181 174 172 q 172 199 172 190 q 101 199 136 196 q 80 200 90 199 q 60 207 69 201 q 39 222 47 213 q 28 243 31 232 q 22 304 18 271 q 26 360 25 332 q 35 417 28 389 q 44 440 38 428 q 63 460 50 453 q 96 469 78 468 q 132 471 114 471 l 169 471 l 169 543 q 144 542 157 543 q 118 543 131 542 q 76 551 94 543 q 56 567 64 557 q 44 588 47 576 q 38 649 35 614 q 42 705 40 676 q 51 761 44 733 q 60 785 54 774 q 79 804 67 797 q 113 815 94 813 q 149 817 131 817 l 179 817 q 180 846 179 832 q 181 875 181 860 q 183 910 182 893 q 182 944 185 926 q 186 965 182 954 q 197 981 190 975 q 215 990 206 988 q 233 996 224 993 q 278 1002 256 1001 q 324 1003 300 1003 q 371 1002 347 1003 q 418 1001 394 1001 q 432 999 422 1001 q 451 995 442 997 q 469 990 461 993 q 482 983 478 986 q 492 967 489 978 q 493 947 496 957 q 489 923 490 942 q 488 897 488 904 q 484 856 485 876 q 482 813 483 835 q 546 813 514 813 q 610 811 578 813 l 611 811 l 611 814 q 615 877 613 846 q 619 940 617 908 q 622 967 621 954 q 626 994 624 981 q 633 1014 629 1004 q 644 1031 638 1024 q 667 1042 656 1039 q 692 1044 679 1044 q 742 1047 717 1044 q 793 1053 768 1050 q 820 1053 803 1054 q 856 1051 838 1053 q 890 1044 874 1049 q 914 1031 906 1039 q 922 1017 919 1025 q 925 1000 924 1008 q 927 978 926 989 q 926 957 928 968 q 924 877 925 917 q 924 797 924 838 q 953 794 939 794 q 983 790 968 793 q 1010 788 997 789 q 1035 783 1022 786 q 1055 777 1046 781 q 1069 767 1064 774 q 1078 749 1076 758 q 1081 728 1081 739 q 1081 685 1079 707 q 1085 643 1083 664 q 1084 620 1085 635 q 1080 591 1083 606 q 1071 563 1076 576 q 1057 543 1065 549 q 1028 535 1046 535 q 986 535 1007 532 q 956 537 971 536 q 925 538 940 538 q 926 494 925 515 q 928 450 926 472 q 948 448 939 449 q 967 446 957 447 q 993 443 981 444 q 1019 439 1006 442 q 1038 433 1029 436 q 1054 422 1047 429 q 1063 403 1061 414 q 1064 383 1065 393 q 1065 340 1064 361 q 1068 299 1067 319 q 1067 276 1068 290 q 1063 246 1067 261 q 1055 217 1060 231 q 1042 199 1050 204 q 1011 190 1029 190 q 969 190 990 188 q 956 191 963 190 q 942 192 949 192 l 942 185 q 947 124 944 154 q 950 63 950 93 q 949 40 950 51 q 942 18 947 28 q 923 -4 935 4 q 899 -17 911 -12 m 611 465 q 610 507 610 486 q 610 549 610 528 l 474 549 q 474 508 474 529 q 475 468 475 488 q 534 467 504 468 q 593 467 564 467 l 611 465 z "},"$":{"ha":810,"x_min":18,"x_max":790,"o":"m 493 -118 q 458 -121 482 -119 q 410 -122 435 -122 q 362 -119 385 -121 q 328 -112 339 -117 q 308 -92 315 -106 q 301 -64 301 -79 q 303 -35 301 -53 q 311 0 306 -18 q 183 20 244 4 q 78 63 122 36 q 46 106 56 76 q 35 172 36 135 q 44 247 35 208 q 67 315 53 285 q 102 365 82 346 q 144 379 122 383 q 224 353 182 369 q 301 328 267 338 q 358 320 336 318 q 381 349 381 322 q 358 379 381 367 q 301 403 335 392 q 226 428 267 415 q 153 463 186 442 q 49 576 79 507 q 26 717 18 644 q 79 858 35 790 q 199 967 124 925 q 235 985 217 978 q 272 999 253 992 q 260 1043 265 1021 q 260 1076 256 1065 q 274 1094 263 1086 q 299 1106 285 1101 q 329 1113 314 1110 q 356 1117 344 1115 q 401 1122 374 1119 q 458 1122 429 1124 q 510 1113 486 1119 q 546 1090 535 1106 q 556 1063 556 1079 q 553 1033 556 1047 q 550 1015 551 1024 q 547 996 549 1006 q 674 918 618 969 q 761 789 729 867 q 749 739 769 768 q 696 681 728 710 q 631 628 664 653 q 581 593 597 604 q 556 581 569 586 q 524 596 543 576 q 497 631 510 611 q 469 666 483 650 q 439 692 456 682 q 401 701 422 703 q 366 690 378 699 q 354 668 354 681 q 365 642 354 656 q 396 617 375 628 q 469 585 431 597 q 545 561 507 574 q 623 531 583 549 q 701 481 663 513 q 767 392 744 444 q 790 284 790 340 q 769 176 790 228 q 703 89 747 124 q 646 54 678 69 q 578 28 614 39 q 592 -27 585 6 q 594 -75 599 -60 q 578 -94 590 -86 q 552 -106 567 -101 q 522 -114 538 -111 q 493 -118 506 -117 z "},"%":{"ha":1518,"x_min":-18,"x_max":1532,"o":"m 660 -18 q 629 -35 647 -35 q 616 -32 625 -35 q 598 -26 607 -29 q 580 -19 589 -22 q 567 -14 571 -15 q 499 18 532 1 q 429 50 465 35 q 400 65 421 54 q 374 83 379 76 q 365 105 367 92 q 368 129 364 118 q 431 263 396 199 q 499 392 465 326 q 547 488 524 440 q 597 583 571 535 q 663 701 629 643 q 728 821 696 760 q 796 944 761 883 q 858 1071 831 1004 q 878 1093 865 1089 q 905 1093 890 1097 q 933 1081 919 1089 q 957 1064 947 1072 q 1021 1025 988 1040 q 1088 994 1054 1010 q 1114 981 1101 988 q 1140 967 1126 974 q 1167 940 1157 957 q 1167 906 1178 924 q 1154 885 1160 894 q 1142 865 1149 875 q 1090 793 1115 829 q 1039 721 1064 757 q 849 393 932 564 q 690 44 765 222 q 685 31 689 40 q 676 13 681 22 q 667 -6 671 3 q 660 -18 663 -15 m 524 669 q 433 568 490 607 q 313 516 376 529 q 185 516 249 503 q 72 569 121 529 q 2 674 22 610 q -11 806 -18 739 q 28 932 -4 874 q 117 1019 61 990 q 243 1055 179 1051 q 364 1040 307 1058 q 465 985 421 1022 q 534 899 510 949 q 558 791 558 850 q 524 669 557 732 m 221 767 q 244 737 228 747 q 279 725 260 726 q 318 730 299 724 q 353 751 338 736 q 372 787 368 767 q 371 826 376 807 q 351 860 365 844 q 314 879 336 875 q 269 876 290 885 q 235 851 249 868 q 217 812 221 835 q 221 767 213 789 m 1497 176 q 1407 75 1464 114 q 1286 22 1350 36 q 1158 22 1222 8 q 1046 76 1094 35 q 976 181 996 117 q 963 313 956 246 q 1002 439 969 381 q 1090 525 1035 497 q 1217 560 1153 557 q 1338 546 1281 564 q 1439 491 1394 528 q 1508 405 1483 454 q 1531 297 1532 356 q 1497 176 1531 238 m 1194 272 q 1217 242 1201 253 q 1253 231 1233 232 q 1292 236 1272 229 q 1326 258 1311 243 q 1346 294 1342 274 q 1344 333 1350 314 q 1324 367 1339 351 q 1288 386 1310 382 q 1243 383 1264 392 q 1208 358 1222 375 q 1190 319 1194 342 q 1194 272 1186 296 z "},"&":{"ha":1154,"x_min":8,"x_max":1171,"o":"m 751 22 q 647 -40 704 -15 q 527 -76 589 -64 q 403 -85 465 -87 q 283 -64 340 -82 q 151 5 207 -40 q 62 108 96 50 q 18 231 28 165 q 23 360 8 296 q 78 481 38 424 q 186 581 118 538 q 118 724 131 649 q 130 869 106 800 q 211 991 154 938 q 353 1069 268 1044 q 492 1091 421 1089 q 629 1078 564 1093 q 749 1032 694 1063 q 838 958 804 1001 q 881 858 872 914 q 865 738 890 803 q 833 685 856 714 q 781 629 810 656 q 721 582 751 603 q 665 556 690 561 q 694 519 678 540 q 729 482 711 499 q 765 459 747 465 q 799 465 783 453 q 840 500 815 478 q 891 542 864 522 q 945 574 918 561 q 993 582 972 588 q 1019 568 1003 579 q 1053 543 1035 557 q 1086 515 1071 529 q 1108 494 1101 501 q 1128 475 1117 486 q 1150 451 1140 464 q 1165 426 1160 439 q 1167 401 1171 413 q 1138 365 1161 385 q 1086 324 1115 344 q 1028 287 1057 304 q 986 260 1000 269 q 1007 238 997 247 q 1022 223 1015 229 q 1029 217 1028 217 q 1069 183 1046 201 q 1110 144 1092 164 q 1140 103 1129 124 q 1142 61 1150 82 q 1085 -10 1125 22 q 997 -61 1044 -43 q 903 -78 950 -79 q 824 -50 856 -78 q 804 -32 817 -44 q 781 -7 792 -19 q 760 14 769 6 q 751 22 751 22 m 517 849 q 454 847 479 858 q 418 813 429 836 q 411 756 407 789 q 436 692 415 724 q 494 731 465 708 q 538 777 522 754 q 551 819 554 800 q 517 849 549 839 m 429 218 q 463 215 442 214 q 503 218 485 215 q 533 228 522 221 q 533 243 543 235 q 503 271 524 253 q 461 310 482 289 q 424 350 440 331 q 404 383 407 369 q 375 339 383 364 q 369 290 367 314 q 388 246 372 265 q 429 218 403 226 z "},"'":{"ha":285,"x_min":22,"x_max":265,"o":"m 139 683 q 110 683 126 682 q 80 688 94 683 q 55 699 65 692 q 40 719 44 707 q 37 756 36 738 q 35 792 38 774 q 29 836 32 807 q 24 898 26 865 q 23 959 22 931 q 31 1001 24 988 q 44 1020 35 1013 q 64 1032 53 1028 q 90 1033 72 1033 q 129 1033 108 1033 q 168 1031 150 1032 q 194 1028 186 1029 q 228 1019 211 1025 q 253 997 244 1013 q 265 962 264 982 q 265 922 265 942 q 257 844 263 883 q 238 768 251 804 q 226 740 232 754 q 210 715 219 726 q 178 692 197 700 q 139 683 158 685 z "},"(":{"ha":544,"x_min":24,"x_max":572,"o":"m 519 -106 q 467 -112 496 -117 q 414 -100 439 -107 q 276 -32 339 -79 q 164 72 213 15 q 99 178 124 121 q 57 296 74 236 q 25 523 26 407 q 49 751 24 639 q 114 925 68 842 q 226 1075 160 1008 q 339 1165 278 1129 q 363 1179 350 1172 q 389 1192 375 1186 q 424 1203 406 1197 q 460 1210 442 1210 q 494 1204 478 1211 q 525 1178 511 1197 q 548 1135 539 1158 q 550 1089 557 1113 q 540 1072 549 1083 q 522 1047 532 1060 q 503 1023 513 1035 q 490 1007 494 1011 q 462 965 475 986 q 438 921 449 943 q 351 660 371 797 q 345 557 344 608 q 350 453 346 506 q 364 353 356 403 q 392 254 372 303 q 451 147 415 199 q 538 58 488 96 q 557 44 547 51 q 569 26 567 38 q 571 3 572 18 q 565 -28 569 -12 q 555 -57 561 -43 q 544 -79 549 -71 q 533 -94 539 -86 q 519 -106 528 -101 z "},")":{"ha":546,"x_min":-28,"x_max":521,"o":"m 131 -100 q 78 -112 106 -107 q 26 -106 50 -117 q 12 -94 18 -101 q 1 -79 6 -86 q -9 -57 -3 -71 q -19 -28 -15 -43 q -26 3 -24 -12 q -25 26 -28 18 q -12 44 -22 38 q 7 58 -3 51 q 93 147 57 96 q 153 254 129 199 q 181 353 172 303 q 194 453 190 403 q 199 557 199 506 q 193 660 200 608 q 163 793 185 728 q 108 921 140 858 q 83 965 96 943 q 54 1007 69 986 q 41 1023 50 1011 q 23 1047 32 1035 q 6 1072 14 1060 q -4 1089 -3 1083 q -2 1135 -11 1113 q 19 1178 7 1158 q 50 1204 33 1197 q 85 1210 67 1211 q 121 1203 103 1210 q 156 1192 139 1197 q 182 1179 169 1186 q 207 1165 194 1172 q 266 1124 239 1146 q 318 1075 293 1101 q 431 925 385 1008 q 497 751 478 842 q 520 523 521 639 q 489 296 519 407 q 447 178 472 236 q 381 72 422 121 q 269 -32 332 15 q 131 -100 206 -79 z "},"*":{"ha":650,"x_min":10,"x_max":635,"o":"m 282 482 q 267 467 276 474 q 247 460 258 460 q 227 466 240 460 q 199 479 214 472 q 172 493 185 486 q 153 503 158 500 q 115 521 133 513 q 82 543 97 529 q 72 551 76 547 q 65 561 67 554 q 67 589 61 574 q 84 613 71 599 q 115 642 97 626 q 150 671 132 657 q 182 696 168 685 q 122 712 151 704 q 61 728 92 719 q 44 733 53 731 q 28 740 35 735 q 15 754 21 746 q 11 772 10 763 q 19 794 11 781 q 35 824 26 808 q 53 853 44 839 q 67 874 63 867 q 84 908 75 889 q 102 942 93 928 q 122 963 111 957 q 149 960 133 969 q 170 942 161 953 q 190 922 179 932 q 217 897 204 910 q 246 872 231 885 l 242 885 q 223 936 232 911 q 207 988 214 961 q 206 1016 204 1001 q 218 1040 208 1031 q 258 1063 231 1053 q 315 1078 285 1072 q 375 1088 346 1085 q 421 1092 404 1092 q 434 1091 428 1092 q 446 1088 440 1090 q 465 1065 461 1081 q 465 1031 468 1050 q 456 993 461 1013 q 446 957 450 974 q 438 921 443 946 q 426 869 433 896 q 496 915 458 893 q 553 939 533 936 q 576 930 567 940 q 593 904 586 919 q 604 872 600 889 q 613 840 608 854 q 618 826 614 836 q 626 806 622 817 q 632 786 629 796 q 635 772 635 776 q 624 756 633 761 q 603 747 614 750 q 551 738 578 740 q 499 731 525 736 q 488 728 490 728 q 497 718 493 722 q 507 710 501 714 q 547 677 526 693 q 588 644 568 661 q 600 632 594 639 q 608 617 606 625 q 607 601 611 610 q 597 588 603 593 q 561 555 581 569 q 522 525 542 540 q 492 501 507 514 q 460 479 478 489 q 437 471 449 474 q 414 471 425 468 q 385 503 396 476 q 369 549 375 531 q 346 614 361 581 q 322 566 332 590 q 301 518 313 542 q 282 482 293 501 z "},"+":{"ha":733,"x_min":10,"x_max":725,"o":"m 435 165 q 382 158 408 161 q 329 156 356 156 q 295 159 313 157 q 264 176 278 161 q 250 206 254 188 q 244 242 246 224 q 241 316 242 279 q 242 390 240 353 q 184 390 213 390 q 126 389 156 389 q 98 389 111 389 q 71 392 85 389 q 33 407 49 396 q 19 436 22 418 q 16 472 17 454 q 13 510 15 490 q 11 529 13 515 q 10 558 10 543 q 10 588 10 574 q 14 607 11 601 q 29 619 18 614 q 51 626 40 625 q 87 628 69 628 q 122 628 104 628 q 182 627 153 626 q 242 629 211 628 q 240 692 240 661 q 239 756 239 724 q 240 783 240 769 q 243 810 240 797 q 249 831 246 821 q 258 847 251 840 q 286 861 269 858 q 324 865 306 864 q 361 867 342 865 q 381 869 367 868 q 410 871 394 871 q 438 870 425 871 q 458 865 451 869 q 470 851 465 863 q 476 829 475 840 q 478 794 479 811 q 478 758 478 776 q 477 697 476 726 q 479 636 478 667 q 554 634 517 635 q 629 633 592 633 q 662 631 646 632 q 692 625 678 631 q 709 608 706 619 q 715 586 713 597 q 722 533 719 560 q 725 481 725 507 q 722 447 725 464 q 704 415 719 429 q 675 401 693 406 q 639 396 657 397 q 562 392 600 392 q 485 393 524 392 q 484 322 485 357 q 482 250 483 286 q 480 218 481 235 q 474 188 479 201 q 456 171 467 175 q 435 165 446 167 z "},",":{"ha":350,"x_min":13,"x_max":333,"o":"m 160 -104 q 144 -104 153 -106 q 131 -98 136 -103 q 124 -85 125 -93 q 129 -64 122 -76 q 140 -26 140 -44 q 117 -1 139 -7 q 56 30 79 8 q 22 81 32 51 q 19 143 13 110 q 50 208 26 176 q 133 265 85 254 q 227 258 182 275 q 303 199 272 240 q 333 101 333 158 q 319 32 333 67 q 280 -31 304 -3 q 224 -80 256 -60 q 160 -104 193 -100 z "},"-":{"ha":582,"x_min":19,"x_max":564,"o":"m 108 385 q 87 385 97 385 q 65 388 76 385 q 51 393 58 390 q 38 403 43 396 q 26 431 29 413 q 24 468 24 450 q 22 506 24 486 q 21 525 22 511 q 19 554 19 539 q 19 583 19 569 q 22 603 19 596 q 51 621 29 618 q 106 622 75 625 q 219 626 163 621 q 332 632 275 631 q 492 628 413 632 q 515 627 503 628 q 539 621 528 626 q 552 603 550 614 q 557 582 554 593 q 562 529 560 556 q 564 475 564 503 q 561 442 564 460 q 547 411 558 425 q 526 397 540 401 q 499 390 513 393 q 397 388 449 385 q 294 389 346 390 q 201 386 247 388 q 108 385 156 385 z "},".":{"ha":346,"x_min":17,"x_max":332,"o":"m 279 265 q 329 169 326 222 q 304 72 332 115 q 224 8 276 29 q 111 6 172 -14 q 56 40 78 15 q 26 94 35 64 q 19 158 17 125 q 33 219 21 190 q 69 269 46 249 q 128 297 93 290 q 209 298 167 304 q 279 265 251 292 z "},"/":{"ha":767,"x_min":-25,"x_max":796,"o":"m 285 -74 q 258 -81 274 -81 q 229 -76 243 -82 q 125 -35 176 -57 q 21 7 74 -14 q -5 19 8 11 q -22 40 -18 26 q -25 63 -25 51 q -19 83 -25 74 q 0 124 -11 104 q 22 163 11 143 q 97 300 60 232 q 169 439 133 368 q 170 440 169 440 q 171 442 171 440 q 218 540 194 490 q 267 638 242 589 q 372 845 319 742 q 467 1057 425 949 q 471 1069 468 1061 q 478 1087 474 1078 q 485 1104 482 1096 q 492 1115 489 1113 q 512 1128 499 1125 q 536 1129 525 1132 q 598 1113 568 1124 q 658 1092 628 1103 q 703 1075 681 1083 q 746 1056 725 1067 q 783 1024 769 1044 q 792 978 796 1006 q 763 901 781 936 q 724 831 743 865 q 686 760 706 796 q 619 629 651 694 q 553 497 586 564 q 450 288 500 393 q 356 75 400 183 q 334 19 344 47 q 311 -36 324 -8 q 300 -57 306 -47 q 285 -74 294 -67 z "},":":{"ha":363,"x_min":24,"x_max":342,"o":"m 288 769 q 331 706 319 740 q 337 639 342 672 q 313 576 332 606 q 264 528 293 547 q 197 502 235 508 q 119 508 160 496 q 47 569 69 525 q 28 661 25 613 q 58 751 31 710 q 138 801 86 792 q 217 802 175 808 q 288 769 260 796 m 286 265 q 336 169 333 222 q 311 72 339 115 q 231 8 283 29 q 118 6 179 -14 q 63 40 85 15 q 33 94 42 64 q 26 158 24 125 q 40 219 28 190 q 76 269 53 249 q 135 297 100 290 q 216 298 174 304 q 286 265 258 292 z "},";":{"ha":372,"x_min":18,"x_max":354,"o":"m 300 769 q 343 706 332 740 q 349 639 354 672 q 325 576 344 606 q 276 528 306 547 q 210 502 247 508 q 132 508 172 496 q 77 544 99 519 q 47 598 56 568 q 40 661 38 628 q 54 724 42 694 q 90 774 67 753 q 149 801 114 794 q 230 802 188 808 q 300 769 272 796 m 165 -104 q 150 -104 158 -106 q 136 -98 142 -103 q 129 -85 131 -93 q 135 -64 128 -76 q 145 -26 146 -44 q 122 -1 144 -7 q 61 30 85 8 q 28 81 38 51 q 25 143 18 110 q 56 208 32 176 q 139 265 90 254 q 233 258 188 275 q 308 199 278 240 q 339 101 339 158 q 324 32 339 67 q 285 -31 310 -3 q 230 -80 261 -60 q 165 -104 199 -100 z "},"<":{"ha":614,"x_min":15,"x_max":606,"o":"m 556 589 q 536 580 550 579 q 511 583 522 581 q 349 606 428 603 q 189 611 271 610 q 122 613 156 613 q 56 611 88 614 q 38 612 47 610 q 24 621 29 614 q 16 643 17 631 q 17 667 15 656 q 31 780 22 724 q 56 892 40 836 q 63 910 58 901 q 75 925 67 919 q 94 933 83 932 q 115 935 104 935 q 238 926 175 938 q 359 893 300 915 q 474 838 418 871 q 578 767 529 806 q 597 744 589 757 q 603 719 606 732 q 585 658 597 692 q 556 589 574 624 m 304 124 q 264 92 285 104 q 219 100 243 81 q 190 128 204 113 q 164 158 176 143 q 132 203 147 181 q 103 249 117 225 q 91 274 96 260 q 90 303 86 289 q 110 330 94 315 q 147 358 126 344 q 189 382 168 371 q 222 399 210 393 q 302 435 263 418 q 382 467 342 451 q 416 478 399 474 q 450 488 433 483 q 475 493 463 490 q 500 493 488 496 q 531 478 518 490 q 540 463 535 474 q 551 442 546 453 q 561 420 557 431 q 567 404 565 410 q 567 383 568 393 q 561 363 567 372 q 537 333 551 346 q 507 310 522 321 q 403 220 453 268 q 304 124 353 172 z "},"=":{"ha":601,"x_min":26,"x_max":576,"o":"m 115 564 q 94 564 104 564 q 72 567 83 564 q 44 582 54 572 q 33 611 36 593 q 31 647 31 629 q 29 685 31 665 q 28 704 29 690 q 26 733 26 718 q 26 763 26 749 q 29 782 26 776 q 58 801 36 799 q 85 803 72 803 q 113 803 99 803 q 226 805 169 800 q 339 811 282 810 q 419 810 379 811 q 499 808 458 810 q 522 806 510 807 q 546 800 535 806 q 559 783 557 794 q 564 761 561 772 q 569 708 567 735 q 571 656 571 682 q 568 622 571 639 q 554 590 565 604 q 533 576 547 581 q 506 571 519 572 q 404 567 456 564 q 301 569 353 571 q 208 566 254 568 q 115 564 163 564 m 119 233 q 99 233 108 233 q 78 236 89 233 q 50 251 61 240 q 39 279 42 261 q 36 317 36 299 q 33 354 36 335 q 33 374 33 360 q 31 403 32 388 q 31 432 31 418 q 35 451 32 446 q 46 464 38 458 q 63 471 54 469 q 90 472 76 472 q 117 472 103 472 q 231 474 175 469 q 344 481 286 479 q 424 480 385 481 q 503 478 463 479 q 528 476 515 476 q 550 469 540 475 q 564 453 561 464 q 568 431 567 442 q 574 378 571 404 q 575 325 576 351 q 573 291 575 308 q 560 260 571 274 q 538 246 551 250 q 511 240 525 242 q 409 237 460 233 q 307 239 358 240 q 213 235 260 238 q 119 233 167 233 z "},">":{"ha":615,"x_min":7,"x_max":599,"o":"m 103 583 q 78 580 92 581 q 58 589 64 579 q 28 658 39 624 q 10 719 17 692 q 15 744 7 732 q 35 767 24 757 q 139 838 83 806 q 254 893 194 871 q 376 926 314 915 q 497 935 438 938 q 519 933 508 935 q 539 925 531 932 q 550 910 546 919 q 557 892 554 901 q 582 780 572 836 q 597 667 592 724 q 598 643 599 656 q 590 621 597 631 q 576 612 585 614 q 558 611 567 610 q 492 613 525 614 q 425 611 458 613 q 263 606 342 610 q 103 583 185 603 m 394 100 q 349 92 371 81 q 310 124 328 104 q 211 220 261 172 q 106 310 161 268 q 76 333 90 321 q 53 363 61 346 q 47 404 43 381 q 53 420 49 410 q 63 442 57 431 q 74 463 68 453 q 83 478 79 474 q 113 493 94 490 q 138 493 125 496 q 163 488 151 490 q 231 467 196 479 q 311 435 271 451 q 392 399 351 418 q 424 382 404 393 q 465 358 444 371 q 502 330 486 344 q 522 303 518 315 q 522 274 526 289 q 510 249 517 260 q 449 158 482 200 q 423 128 436 143 q 394 100 410 113 z "},"?":{"ha":678,"x_min":-28,"x_max":682,"o":"m 515 338 q 481 323 504 328 q 430 317 457 318 q 377 317 403 317 q 336 319 351 318 q 290 323 313 321 q 250 331 268 325 q 222 350 232 338 q 215 385 213 363 q 220 435 218 410 q 226 486 222 461 q 240 534 231 511 q 265 576 249 557 q 305 617 281 594 q 349 664 329 640 q 380 711 369 688 q 378 756 390 735 q 342 780 364 778 q 297 771 321 782 q 249 740 272 760 q 208 700 225 719 q 194 682 201 693 q 179 662 188 671 q 162 647 171 653 q 144 643 153 640 q 109 673 132 647 q 62 731 86 699 q 17 792 38 763 q -12 831 -4 821 q -23 864 -28 849 q 1 900 -18 879 q 131 1001 54 958 q 289 1063 207 1044 q 449 1067 371 1081 q 583 997 526 1053 q 659 881 636 944 q 674 750 682 817 q 624 617 665 683 q 507 493 582 550 q 503 465 500 488 q 510 416 506 442 q 518 367 515 390 q 515 338 521 343 m 536 107 q 503 26 533 60 q 430 -23 472 -7 q 339 -33 388 -39 q 253 4 290 -28 q 217 56 228 25 q 210 119 207 86 q 229 181 214 151 q 272 229 244 211 q 363 260 315 257 q 449 247 410 264 q 514 194 489 231 q 536 107 539 158 z "},"@":{"ha":1167,"x_min":17,"x_max":1165,"o":"m 921 -60 q 831 -100 890 -83 q 703 -125 772 -117 q 560 -133 633 -133 q 426 -119 486 -132 q 258 -44 336 -100 q 126 88 181 13 q 55 225 81 150 q 23 378 29 300 q 28 538 17 457 q 68 692 39 618 q 143 831 97 767 q 250 943 189 894 q 383 1022 308 989 q 540 1069 457 1056 q 715 1074 624 1083 q 901 1025 807 1064 q 1057 907 997 983 q 1141 742 1117 831 q 1154 566 1165 653 q 1098 418 1143 479 q 973 334 1053 357 q 779 351 893 311 q 692 270 743 297 q 588 242 640 243 q 487 264 535 242 q 411 331 439 286 q 365 485 363 407 q 410 625 368 563 q 524 725 451 688 q 686 758 596 763 q 735 749 710 757 q 771 722 760 742 q 780 676 781 704 q 778 624 779 649 q 782 582 778 599 q 806 569 786 565 q 827 585 819 572 q 838 614 835 597 q 842 649 842 631 q 843 682 843 667 q 822 749 842 721 q 772 792 803 776 q 701 815 740 808 q 624 819 663 821 q 458 767 528 813 q 342 633 389 722 q 306 538 319 593 q 292 428 293 483 q 306 322 292 372 q 353 238 319 271 q 463 175 397 193 q 599 156 528 157 q 736 169 669 156 q 849 204 803 183 q 869 205 861 210 q 885 190 878 200 q 897 166 892 179 q 907 140 903 153 q 929 85 917 114 q 947 31 942 57 q 948 -19 953 4 q 921 -60 943 -43 m 599 578 q 583 524 581 544 q 597 494 585 503 q 627 489 610 486 q 658 506 644 492 q 673 545 671 521 q 658 604 675 569 q 646 615 654 614 q 628 610 638 615 q 611 597 619 606 q 599 578 603 588 z "},"A":{"ha":1119,"x_min":-12,"x_max":1135,"o":"m 921 -15 q 885 -24 908 -18 q 835 -33 861 -29 q 785 -40 808 -37 q 749 -39 761 -43 q 725 -22 733 -35 q 710 6 717 -8 q 668 126 682 64 q 578 138 624 133 q 486 144 532 143 l 426 144 q 407 79 417 113 q 388 14 397 46 q 382 -1 385 7 q 374 -15 379 -10 q 337 -28 361 -26 q 285 -28 313 -31 q 233 -22 258 -26 q 190 -15 207 -18 q 100 2 146 -8 q 14 32 54 13 q -5 48 3 38 q -12 69 -12 58 q -9 91 -12 81 q -1 113 -6 101 q 94 343 43 231 q 200 568 146 456 q 295 778 250 672 q 390 989 340 885 q 410 1022 401 1013 q 446 1032 419 1031 q 566 1036 501 1035 q 686 1042 631 1038 q 735 1042 721 1042 q 761 1025 750 1043 q 776 988 771 1007 q 789 950 782 969 q 868 688 826 818 q 919 539 892 613 q 978 392 946 465 q 1022 288 1000 339 q 1071 189 1043 238 q 1097 144 1083 165 q 1124 101 1110 124 q 1131 90 1126 96 q 1135 76 1135 83 q 1121 54 1135 63 q 1025 10 1076 25 q 921 -15 974 -4 m 497 374 q 558 375 528 376 q 619 367 589 374 q 607 438 613 403 q 597 510 601 474 q 589 586 592 549 q 583 663 586 624 q 561 589 572 625 q 539 515 550 553 q 517 444 528 479 q 496 374 507 410 l 497 374 z "},"B":{"ha":915,"x_min":28,"x_max":917,"o":"m 733 4 q 619 -56 681 -33 q 492 -88 558 -78 q 360 -98 426 -99 q 229 -90 293 -97 q 182 -83 210 -87 q 126 -69 154 -78 q 74 -49 97 -61 q 43 -19 51 -36 q 35 34 35 -3 q 39 113 35 71 q 48 192 43 154 q 53 249 53 231 q 50 549 54 400 q 33 849 46 699 q 30 890 32 865 q 28 938 28 914 q 34 983 29 963 q 51 1014 39 1004 q 89 1029 63 1022 q 146 1042 115 1036 q 204 1051 176 1047 q 246 1056 232 1054 q 347 1067 296 1061 q 449 1072 399 1072 q 549 1065 500 1072 q 644 1038 599 1058 q 758 954 708 1010 q 828 832 808 899 q 835 764 838 799 q 822 694 832 729 q 798 626 813 660 q 769 560 783 592 q 883 440 850 513 q 908 289 917 368 q 855 134 900 210 q 733 4 810 58 m 339 775 q 350 691 346 733 q 357 607 354 649 q 488 657 446 621 q 528 726 531 693 q 477 776 525 758 q 339 775 429 794 m 356 249 q 467 260 421 246 q 537 297 513 275 q 563 344 561 319 q 544 388 565 369 q 476 415 522 407 q 360 410 431 422 q 359 329 360 369 q 356 249 358 289 z "},"C":{"ha":985,"x_min":1,"x_max":974,"o":"m 719 19 q 498 -39 611 -29 q 288 -15 385 -49 q 119 100 190 19 q 24 315 47 181 q 18 560 1 438 q 86 787 35 683 q 222 963 138 890 q 422 1061 307 1036 q 533 1076 474 1072 q 650 1072 592 1081 q 763 1042 708 1064 q 861 981 818 1021 q 932 882 904 942 q 965 739 960 822 q 970 706 967 724 q 969 674 974 689 q 949 647 965 658 q 893 633 932 636 q 831 630 878 632 q 729 627 783 628 q 628 628 675 626 q 568 635 582 629 q 560 655 561 638 q 557 692 558 672 q 551 731 556 713 q 532 754 546 749 q 478 751 503 765 q 434 706 453 738 q 403 631 415 675 q 388 541 392 588 q 388 449 383 494 q 407 369 393 404 q 447 315 424 325 q 492 320 471 306 q 526 369 513 335 q 539 450 540 404 q 549 480 539 469 q 575 494 558 490 q 613 499 592 499 q 656 499 633 500 q 790 494 729 494 q 925 489 851 494 q 951 482 942 489 q 963 467 960 475 q 967 451 967 458 q 967 442 967 443 q 951 318 967 382 q 903 197 935 254 q 826 92 872 139 q 719 19 779 46 z "},"D":{"ha":900,"x_min":13,"x_max":893,"o":"m 475 3 q 310 -21 393 -12 q 147 -14 228 -29 q 117 0 131 -12 q 100 17 101 0 q 97 49 99 33 q 90 162 94 106 q 81 275 85 218 q 69 432 74 354 q 54 589 64 510 q 40 699 47 644 q 26 810 32 754 q 18 885 22 847 q 13 961 14 922 q 13 992 13 976 q 22 1022 14 1008 q 42 1040 29 1033 q 69 1050 56 1046 q 160 1075 114 1065 q 253 1089 206 1085 q 532 1061 393 1100 q 645 1017 590 1046 q 740 946 700 989 q 785 887 765 918 q 822 824 806 856 q 867 705 851 767 q 889 579 883 643 q 892 506 892 543 q 886 432 893 468 q 872 368 879 400 q 847 307 864 336 q 812 244 831 275 q 772 185 793 214 q 734 143 756 161 q 689 108 713 125 q 587 43 640 74 q 475 3 533 13 m 344 683 q 354 522 351 601 q 361 361 357 442 l 381 361 q 462 385 429 360 q 522 449 494 411 q 539 482 533 464 q 547 519 544 500 q 544 651 557 583 q 528 700 539 676 q 499 743 518 724 q 469 766 486 757 q 433 781 451 775 q 384 790 403 790 q 335 783 365 790 q 340 733 338 758 q 344 683 342 708 z "},"E":{"ha":792,"x_min":25,"x_max":785,"o":"m 228 -49 q 174 -49 206 -49 q 114 -47 143 -50 q 65 -33 85 -43 q 44 0 44 -22 q 46 225 44 107 q 49 451 47 343 q 51 647 50 560 q 53 781 53 735 q 47 826 53 794 q 36 892 42 857 q 28 958 31 926 q 29 1001 25 989 q 54 1026 35 1018 q 98 1040 74 1035 q 147 1046 122 1044 q 189 1049 172 1047 q 316 1056 246 1053 q 459 1059 386 1058 q 603 1060 532 1060 q 733 1064 675 1061 q 770 1040 758 1064 q 783 978 782 1015 q 778 899 785 942 q 760 819 771 856 q 734 757 749 782 q 707 732 719 732 q 671 733 697 732 q 610 735 644 733 q 538 738 576 736 q 466 742 500 740 q 404 744 432 743 q 365 747 376 746 q 361 717 363 733 q 361 685 360 700 q 366 659 363 671 q 376 643 369 647 q 424 638 388 636 q 500 643 460 639 q 577 651 540 647 q 626 650 614 654 q 657 615 644 644 q 673 549 669 585 q 671 480 676 513 q 647 436 665 447 q 593 419 629 425 q 516 410 557 413 q 437 407 475 407 q 378 408 399 407 q 376 374 378 394 q 375 335 375 354 q 377 303 375 317 q 385 288 379 289 q 422 288 396 285 q 482 299 449 292 q 552 314 515 306 q 622 328 589 322 q 680 337 654 335 q 717 335 706 339 q 738 303 732 328 q 744 247 743 278 q 744 185 746 215 q 742 138 742 154 q 744 85 742 113 q 744 35 746 58 q 731 -3 742 13 q 697 -21 721 -19 q 463 -40 579 -32 q 228 -49 346 -47 z "},"F":{"ha":782,"x_min":24,"x_max":786,"o":"m 338 -67 q 255 -69 296 -68 q 172 -69 214 -69 q 131 -69 151 -69 q 89 -67 110 -69 q 38 -58 53 -64 q 25 -18 24 -51 q 28 49 26 13 q 33 123 31 85 q 38 197 35 161 q 42 264 40 233 q 46 413 46 339 q 49 563 46 488 q 53 782 51 672 q 43 1000 54 892 q 40 1028 42 1014 q 42 1052 39 1042 q 53 1069 44 1063 q 79 1079 61 1076 q 169 1088 115 1085 q 285 1091 222 1090 q 416 1090 349 1092 q 546 1088 483 1089 q 663 1085 608 1086 q 754 1085 717 1085 q 774 1079 768 1085 q 783 1064 781 1074 q 785 1042 786 1054 q 783 1015 785 1029 q 777 940 782 978 q 768 867 772 903 q 760 794 764 831 q 754 721 757 757 q 753 710 754 714 q 732 689 750 694 q 707 689 719 686 q 683 694 694 692 q 531 709 607 706 q 379 711 456 713 q 368 711 376 711 q 357 708 360 711 q 354 697 354 706 q 354 685 354 689 q 355 659 354 672 q 357 633 356 646 q 360 619 358 629 q 364 607 361 610 q 369 605 365 606 q 376 604 374 604 q 438 610 401 606 q 511 618 474 614 q 585 626 549 622 q 646 629 621 629 q 671 627 663 629 q 683 618 679 625 q 689 598 688 611 q 694 564 690 585 q 699 514 700 539 q 701 464 699 489 q 702 439 701 451 q 700 415 703 426 q 683 389 697 397 q 650 378 669 381 q 608 376 631 375 q 567 376 585 376 q 470 377 518 378 q 374 375 422 376 q 385 191 376 283 q 406 7 394 99 q 408 -12 407 -3 q 407 -31 408 -21 q 382 -58 406 -50 q 338 -67 358 -65 z "},"G":{"ha":1006,"x_min":11,"x_max":999,"o":"m 847 28 q 688 -50 776 -25 q 513 -72 600 -75 q 469 -69 490 -71 q 426 -62 449 -68 q 338 -35 382 -51 q 250 1 293 -19 q 156 70 199 28 q 83 163 113 113 q 49 235 63 197 q 26 314 36 274 q 11 465 11 389 q 25 617 11 542 q 44 697 33 657 q 74 772 56 736 q 133 880 100 828 q 210 976 167 932 q 288 1039 244 1013 q 381 1078 332 1065 q 490 1097 433 1093 q 600 1088 547 1101 q 639 1076 619 1082 q 676 1063 658 1071 q 709 1049 693 1056 q 739 1031 725 1042 q 764 1009 751 1019 q 788 986 776 999 l 789 985 q 861 911 829 953 q 911 821 893 869 q 920 795 917 808 q 924 768 924 782 q 914 729 924 744 q 887 707 907 717 q 843 690 867 697 q 796 678 819 682 q 757 671 772 674 q 715 665 736 668 q 672 661 694 661 q 645 662 658 661 q 619 668 632 663 q 599 679 608 672 q 585 697 590 686 q 572 726 576 711 q 561 754 568 740 q 533 783 550 775 q 496 790 515 792 q 458 776 476 788 q 426 747 439 765 q 394 676 403 715 q 383 602 386 640 q 382 526 381 564 q 388 446 383 486 q 407 367 393 406 q 432 316 415 340 q 470 274 449 292 q 517 249 492 257 q 568 247 542 240 q 597 258 583 250 q 624 275 611 265 q 654 310 642 288 q 656 353 667 333 q 626 353 640 354 q 601 349 618 351 q 566 344 585 346 q 531 341 547 342 q 507 343 515 340 q 495 355 500 346 q 490 372 490 364 q 488 424 489 393 q 490 488 488 456 q 501 549 493 521 q 526 589 510 576 q 578 610 547 606 q 642 617 610 615 q 706 617 674 618 q 810 613 758 615 q 914 603 863 611 q 953 590 933 600 q 981 561 972 579 q 987 535 983 554 q 992 508 990 515 q 994 385 999 446 q 978 263 989 324 q 967 218 974 239 q 953 175 960 197 q 910 93 938 132 q 847 28 883 54 z "},"H":{"ha":1026,"x_min":17,"x_max":1017,"o":"m 711 -82 q 664 -81 688 -82 q 621 -69 640 -81 q 601 -47 607 -62 q 596 -17 594 -32 q 605 110 601 47 q 611 238 608 174 q 616 299 613 265 q 618 361 619 333 l 618 364 q 525 367 572 369 q 432 363 478 365 q 427 195 428 279 q 424 28 426 111 q 424 -8 422 7 q 406 -29 425 -24 q 342 -38 376 -36 q 272 -40 307 -40 q 201 -37 236 -39 q 136 -32 167 -35 q 115 -31 129 -32 q 85 -29 100 -31 q 56 -26 69 -28 q 36 -21 42 -24 q 19 14 17 -8 q 26 53 22 33 q 32 92 29 72 q 47 273 43 183 q 56 454 50 363 q 56 825 65 639 q 48 898 53 861 q 36 971 43 935 q 33 993 33 982 q 38 1015 33 1004 q 48 1029 40 1022 q 65 1039 56 1036 q 245 1063 164 1058 q 413 1057 326 1068 q 431 1049 422 1056 q 443 1033 439 1042 q 449 1013 449 1024 q 449 990 449 1001 q 435 812 443 900 q 422 633 428 724 l 422 626 q 460 628 442 628 q 497 629 478 628 q 560 630 529 629 q 624 629 592 631 q 620 802 621 717 q 621 975 619 888 l 621 1089 q 626 1105 621 1099 q 639 1115 632 1111 q 653 1119 646 1118 q 665 1121 661 1121 q 749 1122 714 1122 q 816 1119 785 1121 q 878 1117 847 1118 q 951 1117 910 1115 q 973 1115 963 1117 q 992 1108 983 1114 q 1001 1096 999 1104 q 1004 1081 1004 1088 q 1001 1039 1003 1060 q 996 997 999 1018 q 966 613 968 806 q 979 226 964 421 q 985 151 982 189 q 994 75 988 113 q 1009 1 1001 31 q 1015 -45 1017 -28 q 999 -69 1014 -62 q 943 -78 983 -76 q 892 -78 924 -78 q 826 -80 860 -79 q 762 -81 793 -81 q 711 -82 731 -82 z "},"I":{"ha":493,"x_min":17,"x_max":501,"o":"m 408 -14 q 353 -16 385 -17 q 299 -14 322 -15 q 194 -11 246 -12 q 90 -8 143 -10 q 66 -8 78 -7 q 42 -6 54 -8 q 22 8 26 -3 q 17 35 17 19 q 22 67 18 50 q 29 99 26 83 q 53 257 44 172 q 64 429 61 342 q 64 602 67 517 q 56 763 61 688 q 42 897 50 838 q 25 993 33 957 q 21 1031 19 1018 q 29 1049 22 1043 q 49 1056 36 1056 q 78 1058 61 1057 q 267 1071 169 1065 q 460 1075 364 1076 q 497 1063 492 1074 q 489 1015 501 1051 q 444 848 461 938 q 419 665 428 758 q 410 479 411 571 q 413 305 408 388 q 423 154 417 222 q 438 42 429 86 q 437 4 442 21 q 408 -14 432 -12 z "},"J":{"ha":879,"x_min":0,"x_max":878,"o":"m 500 -39 q 321 -33 406 -56 q 170 44 236 -10 q 60 176 104 97 q 4 351 17 256 q 3 416 0 383 q 35 464 6 449 q 69 478 44 469 q 125 495 94 486 q 190 512 156 504 q 252 522 224 519 q 299 522 281 525 q 321 504 318 518 q 355 433 329 463 q 410 393 381 403 q 467 397 440 383 q 501 451 493 410 q 506 510 506 472 q 503 590 507 549 q 494 669 500 632 q 479 726 488 707 q 353 712 419 722 q 224 690 288 701 q 148 704 172 681 q 115 769 124 728 q 106 865 106 811 q 103 971 106 919 q 102 1014 103 989 q 119 1046 101 1039 q 214 1069 156 1058 q 340 1085 272 1079 q 483 1093 408 1092 q 625 1091 557 1094 q 751 1079 693 1088 q 844 1056 808 1071 q 865 1047 858 1050 q 875 1040 872 1044 q 877 1026 878 1035 q 874 1004 876 1018 q 868 949 871 990 q 862 860 865 907 q 853 772 858 813 q 840 719 847 732 q 824 715 838 714 q 797 717 811 715 q 770 718 782 718 q 758 713 758 718 q 792 557 779 638 q 806 398 806 476 q 790 247 806 319 q 738 117 774 175 q 643 17 701 58 q 500 -39 585 -24 z "},"K":{"ha":957,"x_min":-8,"x_max":954,"o":"m 214 -39 q 167 -42 190 -40 q 119 -43 143 -43 q 94 -37 108 -43 q 76 -21 81 -32 q 73 1 72 -14 q 75 35 74 17 q 79 69 76 53 q 82 93 82 85 q 88 271 89 182 q 86 450 86 360 q 80 587 85 519 q 68 722 75 654 q 47 865 61 794 q 6 1001 32 935 q 3 1011 6 1006 q -5 1038 -8 1022 q 11 1061 -1 1053 q 24 1067 18 1065 q 38 1069 31 1068 q 140 1083 89 1076 q 242 1094 190 1090 q 298 1097 269 1097 q 354 1100 326 1097 q 374 1103 364 1101 q 394 1103 383 1104 q 408 1099 401 1101 q 418 1090 415 1096 q 424 1072 424 1082 q 426 1051 425 1063 q 434 951 432 1001 q 438 850 436 901 l 438 810 q 451 826 446 821 q 519 892 483 863 q 594 947 556 921 q 685 1001 639 976 q 779 1043 731 1026 q 797 1049 786 1046 q 819 1056 808 1053 q 840 1058 831 1058 q 857 1054 850 1058 q 867 1039 864 1047 q 871 1021 869 1031 q 877 963 874 992 q 888 904 881 933 q 901 850 893 876 q 919 797 910 824 q 925 776 922 788 q 924 756 928 765 q 904 737 919 747 q 872 717 889 726 q 837 700 854 708 q 811 688 819 692 q 717 632 763 661 q 626 569 671 603 q 584 536 606 553 q 543 500 563 519 q 556 492 550 496 q 564 485 561 488 q 635 445 599 464 q 710 408 672 426 q 799 374 753 389 q 893 351 844 358 q 921 347 907 349 q 946 338 935 346 q 953 322 953 332 q 951 306 954 313 q 936 249 944 278 q 921 193 928 221 q 906 135 913 164 q 892 78 899 107 q 878 42 886 60 q 858 11 869 25 q 832 -5 849 -1 q 797 -8 815 -8 q 758 -2 778 -7 q 725 8 739 3 q 623 59 671 28 q 531 128 575 90 q 481 173 506 150 q 435 219 457 196 l 435 201 q 440 119 438 160 q 443 36 442 78 q 443 19 443 28 q 440 1 443 10 q 417 -28 436 -19 q 401 -33 413 -31 q 386 -35 390 -35 q 300 -37 343 -37 q 214 -39 257 -37 z "},"L":{"ha":751,"x_min":21,"x_max":751,"o":"m 129 -25 q 94 -26 113 -26 q 61 -18 76 -25 q 39 1 47 -11 q 28 28 31 14 q 25 101 21 67 q 32 172 28 138 q 39 243 36 207 q 56 421 50 335 q 56 638 57 529 q 50 854 54 746 q 46 902 49 878 q 46 950 43 926 q 51 978 46 958 q 64 1006 57 999 q 96 1022 76 1018 q 139 1030 117 1029 q 185 1032 161 1031 q 256 1035 221 1033 q 328 1036 292 1036 q 360 1035 343 1036 q 392 1032 376 1035 q 417 1021 406 1029 q 433 1001 429 1013 q 440 949 443 976 q 432 896 436 922 q 399 641 417 768 q 376 385 382 514 q 389 386 381 386 q 431 390 410 386 q 474 396 453 393 q 547 403 510 399 q 619 411 583 407 q 660 417 639 414 q 701 424 681 421 q 731 417 717 425 q 744 393 746 408 l 744 392 q 751 360 750 376 q 751 328 751 344 q 749 275 751 301 q 743 222 746 249 q 738 136 739 179 q 736 49 736 93 q 735 23 736 36 q 728 -1 735 10 q 710 -16 722 -11 q 688 -21 699 -21 q 525 -23 606 -26 q 363 -17 444 -19 q 246 -19 304 -15 q 129 -25 188 -22 z "},"M":{"ha":1217,"x_min":19,"x_max":1219,"o":"m 365 -7 q 307 -12 336 -10 q 249 -11 278 -14 q 150 -8 206 -10 q 51 1 94 -6 q 33 10 39 3 q 26 27 28 17 q 24 49 24 38 q 22 72 24 61 q 20 128 19 100 q 22 183 21 156 q 43 492 29 339 q 79 797 57 644 q 92 881 86 839 q 106 963 99 922 q 113 1003 110 982 q 126 1042 117 1024 q 143 1062 129 1056 q 171 1068 157 1068 q 273 1065 222 1069 q 375 1057 324 1060 q 409 1055 392 1056 q 440 1044 426 1054 q 459 1022 453 1036 q 468 993 465 1008 q 488 920 479 957 q 508 846 497 883 q 536 758 521 801 q 568 672 551 715 q 581 641 575 657 q 593 610 586 625 q 619 685 607 647 q 642 763 631 724 q 675 865 658 814 q 707 968 692 917 q 722 1015 715 992 q 736 1061 728 1038 q 756 1081 744 1076 q 773 1083 764 1083 q 790 1082 782 1082 q 906 1073 849 1076 q 1021 1076 963 1069 l 1029 1076 q 1050 1077 1040 1079 q 1064 1067 1060 1075 q 1071 1046 1069 1057 q 1075 1024 1072 1035 q 1081 949 1079 986 q 1086 874 1083 911 q 1099 728 1090 806 q 1118 571 1107 650 q 1142 415 1129 492 q 1167 272 1154 338 q 1192 153 1181 206 q 1214 74 1204 101 q 1213 49 1219 58 q 1194 33 1207 39 q 1164 24 1181 26 q 1131 19 1147 21 q 1070 14 1103 17 q 1003 9 1038 11 q 936 5 969 7 q 876 0 903 3 q 833 8 846 -3 q 817 57 819 18 q 814 124 814 90 q 813 192 814 158 q 806 318 810 256 q 804 443 803 381 q 806 528 804 486 q 810 613 808 569 q 738 442 769 529 q 681 265 707 354 q 666 236 675 242 q 646 231 657 231 q 569 226 606 229 q 492 226 532 222 q 472 232 482 228 q 457 243 463 236 q 435 279 443 260 q 419 318 426 299 q 388 417 401 367 q 361 517 374 467 q 390 101 365 307 q 397 67 393 85 q 403 33 400 50 q 394 4 407 14 q 365 -7 382 -6 z "},"N":{"ha":1056,"x_min":13,"x_max":1039,"o":"m 633 -68 q 590 -61 608 -72 q 558 -30 571 -50 q 534 15 544 -10 q 515 63 524 39 q 475 181 496 115 q 432 315 454 247 q 387 447 410 382 q 342 564 364 513 q 376 304 353 440 q 410 44 399 168 q 394 -3 413 13 q 338 -24 376 -18 q 238 -29 299 -29 q 94 -29 176 -29 q 36 -17 60 -29 q 18 31 13 -4 q 56 494 50 263 q 61 958 61 725 q 89 1001 61 985 q 160 1025 117 1017 q 253 1037 203 1033 q 349 1043 304 1040 q 389 1042 374 1044 q 415 1031 404 1039 q 433 1008 425 1022 q 451 972 440 994 q 488 891 465 940 q 535 783 510 842 q 588 663 561 725 q 640 543 615 601 q 686 436 665 485 q 719 357 707 388 q 717 428 721 375 q 706 553 713 482 q 691 703 700 624 q 674 853 682 782 q 660 977 667 924 q 653 1049 654 1031 q 660 1078 650 1068 q 685 1091 669 1088 q 722 1094 701 1094 q 763 1092 743 1093 q 883 1089 822 1086 q 1003 1081 944 1092 q 1031 1059 1024 1076 q 1039 1018 1039 1042 q 1035 969 1039 994 q 1029 922 1031 943 q 1013 710 1018 822 q 1003 482 1007 597 q 994 254 999 367 q 978 42 989 142 q 976 22 978 35 q 972 -3 975 10 q 965 -28 969 -17 q 954 -43 960 -39 q 892 -62 936 -57 q 799 -67 849 -67 q 703 -67 749 -68 q 633 -68 657 -65 z "},"O":{"ha":938,"x_min":10,"x_max":936,"o":"m 844 267 q 735 118 803 178 q 588 28 668 58 q 423 -3 508 -3 q 262 24 338 -4 q 126 109 186 51 q 39 253 67 167 q 11 447 10 340 q 41 656 13 553 q 123 848 69 760 q 254 986 176 936 q 491 1083 381 1068 q 688 1063 601 1099 q 832 949 774 1028 q 913 762 890 869 q 921 526 936 654 q 844 267 906 399 m 410 696 q 335 556 354 621 q 324 444 317 492 q 359 372 331 397 q 425 349 388 346 q 505 388 463 353 q 583 496 547 422 q 622 649 626 583 q 584 744 617 714 q 503 765 551 774 q 410 696 454 756 z "},"P":{"ha":888,"x_min":10,"x_max":890,"o":"m 403 -47 q 386 -53 397 -51 q 363 -56 375 -54 q 338 -57 350 -57 q 319 -57 325 -57 q 256 -56 288 -57 q 193 -54 225 -54 q 160 -54 182 -54 q 115 -53 139 -54 q 70 -51 92 -53 q 40 -44 49 -49 q 24 -29 33 -40 q 13 -11 14 -18 q 11 12 10 0 q 15 35 13 24 q 60 442 47 239 q 78 853 74 646 q 80 932 79 893 q 71 1008 81 971 q 71 1024 68 1015 q 74 1035 71 1029 q 82 1044 78 1040 q 116 1062 97 1056 q 153 1072 135 1068 q 269 1090 211 1086 q 386 1093 328 1093 q 542 1082 464 1094 q 688 1033 619 1069 q 764 976 729 1010 q 824 902 799 943 q 866 816 850 861 q 886 724 882 771 q 879 607 890 668 q 841 510 868 556 q 779 424 814 464 q 731 379 757 400 q 676 340 704 358 q 616 315 649 324 q 551 301 583 307 q 401 306 476 289 q 392 308 397 307 q 383 310 388 308 q 385 299 385 304 q 386 289 385 294 q 393 208 390 249 q 400 128 396 168 q 407 69 403 99 q 415 13 411 40 q 418 -24 419 -8 q 403 -47 415 -39 m 375 633 q 418 628 396 628 q 461 631 440 628 q 510 641 486 633 q 556 663 535 649 q 569 672 563 667 q 579 685 575 678 q 581 728 590 704 q 553 768 571 753 q 526 784 542 778 q 496 794 511 790 q 451 806 474 801 q 406 807 429 810 q 396 806 403 807 q 386 803 389 806 q 383 797 383 801 q 382 789 382 792 q 377 711 378 750 q 375 633 376 672 z "},"Q":{"ha":938,"x_min":10,"x_max":936,"o":"m 546 -182 q 506 -169 522 -186 q 488 -144 494 -158 q 475 -115 482 -131 q 450 -60 463 -87 q 422 -4 438 -32 q 300 11 360 -4 q 190 58 240 26 q 99 139 139 90 q 39 253 60 188 q 11 447 10 340 q 41 656 13 553 q 123 848 69 760 q 254 986 176 936 q 491 1083 381 1068 q 688 1063 601 1099 q 832 949 774 1028 q 913 762 890 869 q 921 526 936 654 q 844 267 906 399 q 767 149 814 199 q 664 64 721 99 q 702 20 683 42 q 740 -22 721 -1 q 754 -39 747 -31 q 763 -58 761 -47 q 759 -75 764 -67 q 747 -89 754 -83 q 674 -130 713 -112 q 596 -164 635 -147 q 571 -174 583 -169 q 546 -182 558 -179 m 485 404 q 491 392 488 397 q 497 381 494 388 q 542 427 521 399 q 583 496 564 456 q 622 649 626 583 q 584 744 617 714 q 503 765 551 774 q 410 696 454 756 q 335 556 353 619 q 324 444 317 492 q 338 450 331 447 q 347 456 344 453 q 366 465 354 458 q 390 476 378 471 q 415 485 403 482 q 433 486 426 489 q 449 473 442 483 q 463 450 457 463 q 475 424 469 438 q 485 404 481 411 z "},"R":{"ha":900,"x_min":10,"x_max":890,"o":"m 742 -71 q 720 -76 732 -78 q 697 -69 708 -74 q 645 -41 669 -58 q 599 -4 621 -24 q 565 24 581 10 q 533 54 549 39 q 503 88 518 71 q 472 122 488 104 q 468 128 471 125 q 429 172 449 150 q 393 217 410 193 q 396 172 394 193 q 400 128 397 150 q 407 69 403 99 q 415 13 411 40 q 418 -24 419 -8 q 403 -47 415 -39 q 386 -53 397 -51 q 363 -56 375 -54 q 338 -57 350 -57 q 319 -57 325 -57 q 256 -56 288 -57 q 193 -54 225 -54 q 160 -54 182 -54 q 115 -53 139 -54 q 70 -51 92 -53 q 40 -44 49 -49 q 24 -29 33 -40 q 13 -11 14 -18 q 11 12 10 0 q 15 35 13 24 q 60 442 47 239 q 78 853 74 646 q 80 932 79 893 q 71 1008 81 971 q 71 1024 68 1015 q 74 1035 71 1029 q 82 1044 78 1040 q 116 1062 97 1056 q 153 1072 135 1068 q 269 1090 211 1086 q 386 1093 328 1093 q 542 1082 464 1094 q 688 1033 619 1069 q 764 976 729 1010 q 824 902 799 943 q 866 816 850 861 q 886 724 882 771 q 879 607 890 668 q 841 510 868 556 q 779 424 814 464 q 731 379 757 400 q 676 340 704 358 q 663 334 669 338 q 649 328 656 331 q 850 179 736 239 l 851 179 q 874 156 871 174 q 871 128 876 143 q 857 99 865 114 q 839 69 849 83 q 824 46 829 56 q 808 21 818 38 q 785 -15 797 4 q 762 -49 774 -33 q 742 -71 750 -65 m 375 633 q 418 628 396 628 q 461 631 440 628 q 510 641 486 633 q 556 663 535 649 q 569 672 563 667 q 579 685 575 678 q 581 728 590 704 q 553 768 571 753 q 526 784 542 778 q 496 794 511 790 q 451 806 474 801 q 406 807 429 810 q 396 806 403 807 q 386 803 389 806 q 383 797 383 801 q 382 789 382 792 q 377 711 378 750 q 375 633 376 672 z "},"S":{"ha":878,"x_min":6,"x_max":874,"o":"m 728 28 q 572 -28 664 -12 q 383 -37 479 -44 q 196 -3 286 -31 q 44 68 106 24 q 14 118 22 85 q 10 191 6 151 q 27 272 14 231 q 60 344 40 313 q 104 394 81 376 q 153 406 128 413 q 237 368 193 390 q 317 331 281 346 q 379 317 354 317 q 407 346 404 317 q 385 381 408 365 q 326 414 363 397 q 248 450 290 431 q 171 496 206 469 q 69 631 94 553 q 60 788 43 710 q 133 935 78 867 q 276 1040 189 1003 q 459 1079 365 1079 q 635 1045 553 1079 q 780 944 718 1011 q 869 785 842 878 q 863 751 874 769 q 833 713 853 732 q 787 674 813 693 q 735 639 761 656 q 685 610 708 622 q 650 590 663 597 q 624 581 639 585 q 589 601 608 578 q 563 642 575 619 q 538 683 551 664 q 506 715 524 701 q 467 728 489 728 q 427 719 440 728 q 412 697 414 711 q 420 667 410 683 q 453 636 431 650 q 528 594 489 611 q 608 560 568 578 q 690 517 649 542 q 771 454 731 493 q 832 350 814 410 q 844 229 850 290 q 809 114 839 168 q 728 28 779 60 z "},"T":{"ha":788,"x_min":-4,"x_max":800,"o":"m 394 -40 q 322 -43 358 -42 q 250 -44 286 -44 q 212 -40 231 -43 q 181 -25 193 -36 q 170 -3 174 -18 q 165 31 167 13 q 165 65 164 49 q 165 93 165 82 q 180 412 168 253 q 228 726 192 571 q 230 739 229 731 q 233 758 231 747 q 156 740 194 750 q 79 719 118 729 q 58 714 68 717 q 36 711 47 711 q 17 721 25 713 q 10 740 10 729 l 1 865 q -2 899 0 878 q -4 944 -4 921 q -1 986 -4 967 q 10 1015 1 1006 q 33 1033 19 1026 q 60 1042 46 1039 q 126 1058 93 1051 q 192 1071 160 1064 q 311 1084 251 1082 q 432 1086 371 1086 q 514 1083 472 1086 q 596 1076 556 1081 q 678 1067 636 1072 q 761 1051 721 1063 q 778 1044 769 1049 q 793 1033 788 1040 q 799 1017 797 1028 q 800 993 800 1006 q 799 969 800 981 q 796 950 797 957 q 787 898 792 924 q 776 846 782 872 q 773 819 774 833 q 768 793 772 806 q 758 776 765 783 q 739 765 750 768 q 722 763 731 763 q 706 765 714 764 q 637 776 671 769 q 567 786 603 782 l 543 786 q 538 675 538 731 q 540 564 539 619 q 551 338 543 450 q 576 113 560 225 q 582 75 579 93 q 585 38 585 57 q 585 13 586 25 q 576 -10 583 1 q 543 -31 567 -24 q 469 -40 507 -40 q 394 -40 432 -40 z "},"U":{"ha":925,"x_min":18,"x_max":907,"o":"m 889 315 q 815 152 865 224 q 697 35 764 81 q 551 -31 629 -11 q 393 -42 472 -51 q 240 7 314 -33 q 108 122 167 47 q 53 234 74 167 q 26 381 33 301 q 21 546 18 460 q 34 714 24 632 q 62 868 44 796 q 100 994 79 940 q 138 1031 110 1018 q 201 1048 165 1044 q 275 1047 236 1051 q 344 1031 314 1043 q 392 999 375 1018 q 404 954 410 979 q 376 843 392 900 q 349 730 360 786 q 337 617 339 674 q 350 507 335 561 q 381 453 358 475 q 432 425 404 432 q 488 426 460 418 q 535 463 515 435 q 571 570 564 504 q 572 709 578 636 q 551 852 565 782 q 522 969 536 922 q 533 1008 517 989 q 578 1041 549 1026 q 644 1065 607 1056 q 715 1076 681 1075 q 778 1066 750 1076 q 819 1031 807 1056 q 851 940 836 994 q 878 819 867 885 q 896 682 889 753 q 905 544 903 611 q 903 417 907 476 q 889 315 899 357 z "},"V":{"ha":1121,"x_min":-15,"x_max":1132,"o":"m 433 -40 q 403 -41 415 -40 q 383 -41 392 -42 q 369 -37 375 -40 q 358 -24 364 -33 q 342 14 347 -6 q 331 53 338 33 q 291 183 311 118 q 251 314 271 247 q 200 464 228 390 q 142 611 172 538 q 97 714 119 663 q 47 814 75 765 q 23 858 36 836 q -4 900 10 879 q -12 913 -8 907 q -15 925 -15 918 q -3 949 -15 940 q 94 991 42 976 q 199 1017 146 1006 q 235 1025 211 1019 q 285 1035 258 1031 q 335 1043 311 1040 q 369 1042 358 1046 q 393 1023 385 1036 q 408 996 401 1010 q 440 915 428 957 q 461 829 451 872 q 496 662 481 746 q 522 492 511 578 q 530 416 526 454 q 536 340 533 378 q 558 413 547 376 q 581 486 569 450 q 656 738 618 613 q 732 989 693 863 q 737 1003 735 996 q 746 1018 739 1011 q 782 1030 758 1028 q 833 1030 806 1032 q 885 1024 860 1028 q 928 1017 911 1019 q 1019 999 974 1010 q 1106 969 1064 989 q 1124 955 1117 965 q 1132 933 1132 944 q 1128 911 1132 922 q 1119 889 1124 900 q 1024 660 1075 772 q 919 435 974 547 q 824 224 868 331 q 729 13 779 118 q 708 -20 718 -11 q 674 -31 699 -29 q 553 -35 618 -33 q 433 -40 488 -36 z "},"W":{"ha":1215,"x_min":18,"x_max":1218,"o":"m 789 -44 q 772 -46 781 -46 q 754 -43 763 -46 q 735 -24 743 -39 q 720 23 726 0 q 706 69 714 46 q 674 172 690 121 q 640 275 657 222 q 617 351 629 313 q 592 426 606 390 q 579 395 585 411 q 567 364 574 379 q 535 278 550 321 q 507 190 519 235 q 487 117 496 154 q 467 43 478 81 q 458 15 464 29 q 439 -7 451 0 q 408 -17 425 -17 q 374 -19 390 -18 q 272 -27 322 -22 q 169 -31 221 -32 q 142 -24 156 -31 q 125 -4 128 -18 q 112 35 115 14 q 104 75 108 56 q 91 157 97 115 q 78 239 85 199 q 42 546 56 393 q 21 853 28 699 q 19 908 19 881 q 21 964 18 936 q 22 988 22 976 q 24 1010 22 1000 q 32 1028 26 1021 q 50 1036 38 1035 q 149 1044 93 1043 q 247 1049 204 1046 q 364 1044 306 1050 q 393 1033 381 1042 q 401 1004 406 1024 q 395 970 399 988 q 389 936 392 953 q 360 521 364 731 q 386 621 372 571 q 418 719 400 671 q 433 758 425 739 q 456 794 442 778 q 471 806 461 801 q 490 811 481 810 q 567 812 531 815 q 644 807 604 808 q 665 801 656 806 q 679 772 674 796 q 737 596 706 683 q 808 425 768 508 q 805 509 807 467 q 803 594 803 551 q 805 719 801 657 q 811 846 808 782 q 813 913 813 879 q 815 981 813 947 q 831 1030 818 1019 q 875 1038 844 1040 q 935 1032 901 1035 q 1002 1027 968 1029 q 1069 1023 1036 1025 q 1129 1018 1101 1021 q 1163 1013 1146 1015 q 1192 1003 1179 1010 q 1212 988 1206 997 q 1213 963 1218 978 q 1191 883 1203 935 q 1166 766 1179 832 q 1140 623 1153 700 q 1117 467 1128 546 q 1097 310 1106 388 q 1085 164 1089 232 q 1080 89 1082 126 q 1074 13 1078 51 q 1069 -9 1071 1 q 1063 -29 1068 -19 q 1049 -40 1058 -39 q 1028 -39 1039 -42 l 1019 -39 q 904 -35 961 -32 q 789 -44 847 -39 z "},"X":{"ha":917,"x_min":1,"x_max":915,"o":"m 797 7 q 772 -12 786 -1 q 744 -30 758 -22 q 714 -42 729 -37 q 685 -43 699 -46 q 672 -39 682 -43 q 658 -32 661 -35 q 614 3 633 -18 q 575 46 594 24 q 531 95 551 69 q 490 147 511 121 q 458 189 471 168 q 425 147 442 165 q 385 95 406 121 q 342 46 364 69 q 302 3 322 24 q 257 -32 282 -18 q 244 -39 254 -35 q 231 -43 233 -43 q 201 -42 217 -46 q 172 -30 186 -37 q 143 -12 157 -22 q 118 7 129 -1 q 89 31 107 15 q 53 66 71 47 q 21 103 35 85 q 4 135 7 122 q 5 158 1 146 q 14 181 8 171 q 32 206 22 194 q 53 231 42 218 q 149 341 100 288 q 243 453 199 394 q 251 465 247 460 q 260 476 256 469 q 200 572 229 525 q 143 667 171 619 q 78 776 110 721 q 19 889 46 831 q 7 921 13 904 q 3 953 1 938 q 13 979 4 967 q 32 1000 21 992 q 72 1030 54 1018 q 108 1050 90 1042 q 146 1066 125 1058 q 194 1083 167 1074 q 233 1089 213 1090 q 268 1076 253 1088 q 304 1029 292 1057 q 332 976 317 1001 q 395 874 364 925 q 458 772 426 824 l 583 976 q 612 1029 599 1001 q 649 1076 625 1057 q 683 1089 663 1088 q 721 1083 704 1090 q 769 1066 749 1074 q 808 1050 790 1058 q 843 1030 825 1042 q 885 1000 861 1018 q 904 979 896 992 q 913 953 913 967 q 908 921 914 938 q 896 889 903 904 q 838 776 869 831 q 772 667 806 721 q 715 572 744 619 q 656 476 686 525 q 664 465 660 469 q 672 453 668 460 q 767 341 717 394 q 863 231 817 288 q 883 206 874 218 q 901 181 893 194 q 912 158 908 171 q 913 135 915 146 q 895 103 910 122 q 863 66 881 85 q 826 31 844 47 q 797 7 808 15 z "},"Y":{"ha":976,"x_min":-14,"x_max":1003,"o":"m 515 -31 q 454 -35 490 -32 q 381 -38 418 -39 q 313 -31 344 -37 q 268 -3 282 -24 q 252 47 256 15 q 251 116 249 78 q 258 196 253 154 q 271 276 264 238 q 284 349 278 315 q 293 404 290 382 q 144 594 213 494 q 28 804 76 694 q 12 836 21 817 q -3 876 3 856 q -12 916 -10 897 q -6 946 -14 935 q 31 981 6 961 q 87 1018 56 1000 q 153 1051 118 1036 q 220 1076 189 1067 q 276 1084 251 1085 q 310 1071 300 1083 q 333 1032 319 1061 q 362 963 346 1003 q 394 879 378 924 q 425 794 410 835 q 453 723 440 754 q 474 678 465 692 q 518 806 493 733 q 569 946 543 878 q 617 1065 594 1014 q 657 1131 640 1117 q 699 1140 667 1139 q 774 1135 732 1142 q 861 1114 817 1128 q 939 1079 906 1100 q 988 1030 972 1058 q 986 968 1003 1001 q 821 664 911 819 q 640 340 731 508 q 637 304 635 331 q 644 244 639 278 q 658 174 650 211 q 671 102 665 136 q 678 42 676 68 q 675 6 681 17 q 648 -17 668 -10 q 604 -26 628 -24 q 556 -29 581 -29 q 515 -31 532 -29 z "},"Z":{"ha":831,"x_min":7,"x_max":819,"o":"m 592 -37 q 491 -50 542 -47 q 390 -51 440 -53 q 276 -43 332 -50 q 165 -21 219 -36 q 114 -6 139 -14 q 65 13 89 1 q 33 54 38 25 q 30 114 29 85 q 29 174 31 143 q 26 217 28 196 q 22 260 25 238 q 20 273 22 263 q 15 286 18 283 q 10 310 7 297 q 22 336 13 324 q 42 360 31 349 q 65 383 54 372 q 153 467 108 425 q 238 553 197 508 q 341 662 289 608 q 442 774 393 715 q 445 778 444 776 q 447 781 446 779 q 414 776 429 778 q 390 774 399 775 q 255 752 322 763 q 118 735 188 742 q 91 735 104 733 q 68 743 78 736 q 57 758 61 747 q 51 781 53 768 q 47 806 49 793 q 46 826 46 818 q 44 926 43 876 q 49 1025 46 976 q 51 1036 50 1031 q 54 1044 51 1042 q 63 1050 60 1050 q 68 1056 64 1054 q 93 1063 75 1060 q 131 1070 111 1067 q 169 1076 151 1074 q 196 1078 188 1078 q 356 1093 276 1086 q 515 1101 435 1100 q 583 1102 549 1101 q 650 1103 617 1103 q 695 1102 672 1103 q 740 1094 718 1101 q 769 1083 756 1090 q 790 1064 783 1076 q 801 1028 801 1047 q 801 989 801 1008 q 801 911 803 950 q 810 833 799 872 q 815 807 811 826 q 819 781 819 788 q 810 758 818 768 q 792 738 801 747 q 724 669 760 701 q 654 600 688 636 q 598 533 625 568 q 539 467 571 499 q 498 426 519 446 q 456 386 476 407 q 419 345 436 367 q 383 301 401 324 q 371 286 379 297 q 385 285 378 286 q 399 285 392 285 q 531 294 465 282 q 663 324 597 307 q 699 332 681 328 q 736 333 718 336 q 756 320 749 331 q 769 296 764 310 q 776 267 774 282 q 781 239 778 251 q 793 160 788 199 q 803 82 799 122 q 803 55 806 68 q 792 31 800 42 q 778 19 786 24 q 764 11 771 15 q 671 -18 717 -8 q 631 -30 651 -25 q 592 -37 611 -35 z "},"[":{"ha":522,"x_min":28,"x_max":540,"o":"m 506 -169 q 413 -174 458 -176 q 319 -168 367 -171 q 204 -163 261 -164 q 89 -160 147 -162 q 45 -142 63 -158 q 31 -101 28 -126 q 37 -20 35 -61 q 40 63 39 21 q 44 181 42 122 q 46 300 46 240 q 44 523 44 413 q 44 746 43 633 q 45 874 46 811 q 42 1001 44 938 q 35 1088 39 1046 q 28 1175 31 1131 q 28 1196 28 1186 q 29 1217 28 1206 q 37 1235 31 1226 q 50 1250 43 1244 q 92 1263 69 1261 q 138 1267 115 1264 q 213 1270 175 1269 q 286 1269 250 1271 q 330 1275 304 1272 q 383 1281 356 1278 q 435 1285 410 1283 q 479 1289 461 1288 q 510 1285 500 1290 q 525 1270 521 1281 q 530 1243 529 1260 q 532 1204 531 1226 q 535 1122 535 1164 q 529 1039 536 1079 q 528 1017 528 1028 q 528 995 529 1006 q 523 977 528 985 q 507 967 518 969 q 478 965 499 964 q 434 970 458 967 q 385 977 410 974 q 342 983 360 981 q 344 760 344 871 q 344 536 344 649 q 347 346 346 440 q 344 156 349 251 q 412 159 378 157 q 478 167 446 161 q 510 167 494 171 q 524 157 518 164 q 533 142 531 150 q 539 97 539 124 q 536 49 538 74 q 535 1 535 25 q 536 -62 535 -31 q 538 -125 538 -93 q 532 -157 540 -143 q 506 -169 524 -169 z "},"\\":{"ha":767,"x_min":-32,"x_max":796,"o":"m 538 -76 q 508 -81 524 -82 q 482 -74 493 -81 q 467 -57 472 -67 q 456 -36 461 -47 q 433 19 443 -8 q 411 75 422 47 q 317 288 367 183 q 214 497 267 393 q 148 629 181 564 q 81 760 115 694 q 42 831 61 796 q 4 901 22 865 q -25 978 -14 936 q -17 1024 -32 1003 q 0 1042 -10 1035 q 21 1056 10 1050 q 64 1075 42 1067 q 108 1092 86 1083 q 169 1113 139 1103 q 231 1129 199 1124 q 255 1128 242 1132 q 275 1115 268 1125 q 281 1104 278 1113 q 288 1087 285 1096 q 295 1069 292 1078 q 300 1057 299 1061 q 394 845 342 949 q 500 638 447 742 q 549 540 525 589 q 596 442 572 490 q 597 439 596 440 q 670 300 633 368 q 744 163 707 232 q 766 124 756 143 q 786 83 776 104 q 789 40 796 63 q 772 19 785 26 q 744 7 758 11 q 641 -35 692 -14 q 538 -76 590 -57 z "},"]":{"ha":525,"x_min":-17,"x_max":496,"o":"m 43 -174 q -3 -154 3 -176 q -11 -89 -8 -132 q -14 -6 -14 -47 q -8 76 -14 36 q -7 98 -7 86 q -6 120 -7 110 q -1 138 -6 131 q 15 149 4 146 q 44 150 24 151 q 88 146 64 149 q 138 139 113 143 q 181 132 163 135 q 178 356 178 244 q 178 579 178 467 q 175 769 176 675 q 178 960 174 864 q 110 957 144 958 q 43 949 76 956 q 28 947 36 947 q 13 949 19 946 q -11 974 -7 956 q -16 996 -15 985 q -17 1018 -17 1007 l -12 1114 q -14 1177 -12 1146 q -17 1240 -15 1208 q -16 1257 -17 1249 q -10 1272 -15 1265 q 2 1282 -6 1279 q 17 1286 10 1285 q 109 1290 63 1292 q 203 1283 156 1288 q 318 1278 261 1279 q 433 1275 375 1278 q 476 1258 458 1274 q 492 1217 494 1243 q 485 1135 486 1176 q 482 1054 483 1094 q 478 935 481 994 q 476 815 476 875 q 478 592 476 703 q 476 369 479 482 q 476 242 476 306 q 481 114 476 178 q 487 27 483 69 q 493 -58 490 -15 q 492 -101 496 -83 q 471 -133 489 -124 q 429 -147 451 -146 q 383 -150 407 -149 q 236 -154 310 -157 q 192 -159 218 -157 q 140 -164 167 -161 q 87 -169 113 -167 q 43 -174 61 -172 z "},"^":{"ha":640,"x_min":-10,"x_max":646,"o":"m 474 613 q 451 608 463 610 q 429 610 440 607 q 404 628 417 614 q 381 662 392 643 q 363 701 371 681 q 350 733 356 721 q 321 826 333 781 q 297 755 310 790 q 269 685 285 719 q 252 647 261 665 q 226 617 243 629 q 198 608 214 608 q 167 613 182 607 q 97 640 131 625 q 28 671 63 656 q -1 688 8 671 q 1 719 -10 704 q 8 727 4 724 q 14 733 11 731 q 72 784 43 758 q 124 842 100 810 q 165 917 149 876 q 196 997 181 957 q 205 1022 200 1008 q 221 1043 210 1035 q 263 1054 236 1054 q 315 1050 289 1054 q 378 1056 344 1056 q 426 1038 411 1057 q 438 1016 433 1028 q 446 993 442 1004 q 475 915 460 954 q 517 843 490 875 q 593 760 551 796 q 613 744 603 753 q 632 728 622 736 q 644 710 642 719 q 642 692 646 700 q 628 678 638 683 q 607 672 619 672 q 541 641 574 657 q 474 613 508 625 z "},"_":{"ha":786,"x_min":17,"x_max":769,"o":"m 139 -42 q 110 -42 124 -42 q 81 -39 96 -42 q 42 -22 56 -35 q 31 -9 35 -17 q 26 6 28 -1 q 23 42 24 25 q 21 79 22 60 q 18 99 19 85 q 17 128 17 113 q 17 157 17 143 q 21 176 18 171 q 37 189 25 183 q 60 196 49 194 q 97 198 79 199 q 135 197 115 197 q 292 200 214 194 q 450 206 371 206 q 560 205 506 206 q 669 203 614 204 q 703 201 686 201 q 735 194 721 201 q 753 178 750 189 q 760 157 757 167 q 767 103 764 129 q 769 50 769 78 q 766 16 769 33 q 747 -14 763 -1 q 717 -28 736 -24 q 679 -35 699 -33 q 538 -38 608 -42 q 397 -36 468 -35 q 268 -40 332 -37 q 139 -42 204 -42 z "},"a":{"ha":1135,"x_min":-6,"x_max":1142,"o":"m 928 -15 q 892 -24 915 -18 q 842 -33 868 -29 q 792 -40 815 -37 q 756 -39 768 -43 q 732 -22 740 -35 q 717 6 724 -8 q 675 126 689 64 q 585 138 631 133 q 493 144 539 143 l 433 144 q 414 79 424 113 q 394 14 404 46 q 389 -1 392 7 q 381 -15 386 -10 q 344 -28 368 -26 q 292 -28 319 -31 q 240 -22 265 -26 q 197 -15 214 -18 q 107 2 153 -8 q 21 32 61 13 q 2 48 10 38 q -6 69 -6 58 q -2 91 -6 81 q 6 113 1 101 q 101 343 50 231 q 207 568 153 456 q 302 778 257 672 q 397 989 347 885 q 417 1022 408 1013 q 453 1032 426 1031 q 573 1036 508 1035 q 693 1042 638 1038 q 742 1042 728 1042 q 768 1025 757 1043 q 783 988 778 1007 q 796 950 789 969 q 875 688 833 818 q 926 539 899 613 q 985 392 953 465 q 1028 288 1007 339 q 1078 189 1050 238 q 1103 144 1090 165 q 1131 101 1117 124 q 1138 90 1133 96 q 1142 76 1142 83 q 1128 54 1142 63 q 1032 10 1083 25 q 928 -15 981 -4 m 504 374 q 565 375 535 376 q 626 367 596 374 q 614 438 619 403 q 604 510 608 474 q 596 586 599 549 q 590 663 593 624 q 568 589 579 625 q 546 515 557 553 q 524 444 535 479 q 503 374 514 410 l 504 374 z "},"b":{"ha":913,"x_min":25,"x_max":914,"o":"m 731 4 q 617 -56 678 -33 q 490 -88 556 -78 q 357 -98 424 -99 q 226 -90 290 -97 q 179 -83 207 -87 q 123 -69 151 -78 q 72 -49 94 -61 q 40 -19 49 -36 q 32 34 32 -3 q 36 113 32 71 q 45 192 40 154 q 50 249 50 231 q 47 549 51 400 q 31 849 43 699 q 27 890 29 865 q 26 938 25 914 q 31 983 26 963 q 49 1014 36 1004 q 86 1029 60 1022 q 143 1042 113 1036 q 201 1051 174 1047 q 243 1056 229 1054 q 344 1067 293 1061 q 447 1072 396 1072 q 547 1065 497 1072 q 642 1038 596 1058 q 756 954 706 1010 q 825 832 806 899 q 832 764 835 799 q 819 694 829 729 q 795 626 810 660 q 767 560 781 592 q 881 440 847 513 q 906 289 914 368 q 852 134 897 210 q 731 4 807 58 m 336 775 q 347 691 343 733 q 354 607 351 649 q 485 657 443 621 q 525 726 528 693 q 474 776 522 758 q 336 775 426 794 m 353 249 q 464 260 418 246 q 534 297 510 275 q 560 344 558 319 q 541 388 563 369 q 474 415 519 407 q 357 410 428 422 q 356 329 357 369 q 353 249 356 289 z "},"c":{"ha":983,"x_min":1,"x_max":974,"o":"m 719 19 q 498 -39 611 -29 q 288 -15 385 -49 q 119 100 190 19 q 24 315 47 181 q 18 560 1 438 q 86 787 35 683 q 222 963 138 890 q 422 1061 307 1036 q 533 1076 474 1072 q 650 1072 592 1081 q 763 1042 708 1064 q 861 981 818 1021 q 932 882 904 942 q 965 739 960 822 q 970 706 967 724 q 969 674 974 689 q 949 647 965 658 q 893 633 932 636 q 831 630 878 632 q 729 627 783 628 q 628 628 675 626 q 568 635 582 629 q 560 655 561 638 q 557 692 558 672 q 551 731 556 713 q 532 754 546 749 q 478 751 503 765 q 434 706 453 738 q 403 631 415 675 q 388 541 392 588 q 388 449 383 494 q 407 369 393 404 q 447 315 424 325 q 492 320 471 306 q 526 369 513 335 q 539 450 540 404 q 549 480 539 469 q 575 494 558 490 q 613 499 592 499 q 656 499 633 500 q 790 494 729 494 q 925 489 851 494 q 951 482 942 489 q 963 467 960 475 q 967 451 967 458 q 967 442 967 443 q 951 318 967 382 q 903 197 935 254 q 826 92 872 139 q 719 19 779 46 z "},"d":{"ha":899,"x_min":11,"x_max":892,"o":"m 474 3 q 309 -21 392 -12 q 146 -14 226 -29 q 115 0 129 -12 q 99 17 100 0 q 96 49 97 33 q 88 162 93 106 q 79 275 83 218 q 67 432 72 354 q 53 589 63 510 q 38 699 46 644 q 25 810 31 754 q 17 885 21 847 q 11 961 13 922 q 12 992 11 976 q 21 1022 13 1008 q 41 1040 28 1033 q 68 1050 54 1046 q 158 1075 113 1065 q 251 1089 204 1085 q 531 1061 392 1100 q 644 1017 589 1046 q 739 946 699 989 q 784 887 764 918 q 821 824 804 856 q 866 705 850 767 q 888 579 882 643 q 891 506 890 543 q 885 432 892 468 q 870 368 878 400 q 846 307 863 336 q 810 244 829 275 q 771 185 792 214 q 733 143 754 161 q 688 108 711 125 q 585 43 639 74 q 474 3 532 13 m 343 683 q 353 522 350 601 q 360 361 356 442 l 379 361 q 460 385 428 360 q 521 449 493 411 q 538 482 532 464 q 546 519 543 500 q 543 651 556 583 q 527 700 538 676 q 497 743 517 724 q 467 766 485 757 q 432 781 450 775 q 383 790 401 790 q 333 783 364 790 q 338 733 336 758 q 343 683 340 708 z "},"e":{"ha":789,"x_min":22,"x_max":782,"o":"m 225 -49 q 172 -49 203 -49 q 111 -47 140 -50 q 62 -33 82 -43 q 42 0 42 -22 q 43 225 42 107 q 46 451 44 343 q 49 647 47 560 q 50 781 50 735 q 44 826 50 794 q 33 892 39 857 q 25 958 28 926 q 26 1001 22 989 q 51 1026 32 1018 q 95 1040 71 1035 q 144 1046 119 1044 q 186 1049 169 1047 q 313 1056 243 1053 q 456 1059 383 1058 q 601 1060 529 1060 q 731 1064 672 1061 q 767 1040 756 1064 q 781 978 779 1015 q 775 899 782 942 q 757 819 768 856 q 731 757 746 782 q 704 732 717 732 q 668 733 694 732 q 608 735 642 733 q 535 738 574 736 q 463 742 497 740 q 401 744 429 743 q 363 747 374 746 q 358 717 360 733 q 358 685 357 700 q 363 659 360 671 q 374 643 367 647 q 421 638 385 636 q 497 643 457 639 q 574 651 538 647 q 624 650 611 654 q 654 615 642 644 q 670 549 667 585 q 668 480 674 513 q 644 436 663 447 q 590 419 626 425 q 513 410 554 413 q 434 407 472 407 q 375 408 396 407 q 374 374 375 394 q 372 335 372 354 q 374 303 372 317 q 382 288 376 289 q 419 288 393 285 q 479 299 446 292 q 549 314 513 306 q 619 328 586 322 q 677 337 651 335 q 714 335 703 339 q 735 303 729 328 q 742 247 740 278 q 741 185 743 215 q 739 138 739 154 q 741 85 739 113 q 741 35 743 58 q 728 -3 739 13 q 694 -21 718 -19 q 460 -40 576 -32 q 225 -49 343 -47 z "},"f":{"ha":782,"x_min":21,"x_max":783,"o":"m 335 -67 q 252 -69 293 -68 q 169 -69 211 -69 q 128 -69 149 -69 q 86 -67 107 -69 q 35 -58 50 -64 q 22 -18 21 -51 q 26 49 24 13 q 30 123 28 85 q 35 197 32 161 q 39 264 38 233 q 43 413 43 339 q 46 563 43 488 q 50 782 49 672 q 40 1000 51 892 q 38 1028 39 1014 q 39 1052 36 1042 q 50 1069 42 1063 q 76 1079 58 1076 q 166 1088 113 1085 q 283 1091 219 1090 q 413 1090 346 1092 q 543 1088 481 1089 q 660 1085 606 1086 q 751 1085 714 1085 q 772 1079 765 1085 q 781 1064 778 1074 q 783 1042 783 1054 q 781 1015 782 1029 q 774 940 779 978 q 765 867 769 903 q 758 794 761 831 q 751 721 754 757 q 750 710 751 714 q 729 689 747 694 q 704 689 717 686 q 681 694 692 692 q 528 709 604 706 q 376 711 453 713 q 365 711 374 711 q 354 708 357 711 q 351 697 351 706 q 351 685 351 689 q 352 659 351 672 q 354 633 353 646 q 357 619 356 629 q 361 607 358 610 q 367 605 363 606 q 374 604 371 604 q 435 610 399 606 q 508 618 471 614 q 582 626 546 622 q 643 629 618 629 q 668 627 660 629 q 681 618 676 625 q 686 598 685 611 q 692 564 688 585 q 697 514 697 539 q 699 464 696 489 q 699 439 699 451 q 697 415 700 426 q 681 389 694 397 q 647 378 667 381 q 605 376 628 375 q 564 376 582 376 q 467 377 515 378 q 371 375 419 376 q 383 191 374 283 q 403 7 392 99 q 405 -12 404 -3 q 404 -31 406 -21 q 379 -58 403 -50 q 335 -67 356 -65 z "},"g":{"ha":1004,"x_min":11,"x_max":999,"o":"m 847 28 q 688 -50 776 -25 q 513 -72 600 -75 q 469 -69 490 -71 q 426 -62 449 -68 q 338 -35 382 -51 q 250 1 293 -19 q 156 70 199 28 q 83 163 113 113 q 49 235 63 197 q 26 314 36 274 q 11 465 11 389 q 25 617 11 542 q 44 697 33 657 q 74 772 56 736 q 133 880 100 828 q 210 976 167 932 q 288 1039 244 1013 q 381 1078 332 1065 q 490 1097 433 1093 q 600 1088 547 1101 q 639 1076 619 1082 q 676 1063 658 1071 q 709 1049 693 1056 q 739 1031 725 1042 q 764 1009 751 1019 q 788 986 776 999 l 789 985 q 861 911 829 953 q 911 821 893 869 q 920 795 917 808 q 924 768 924 782 q 914 729 924 744 q 887 707 907 717 q 843 690 867 697 q 796 678 819 682 q 757 671 772 674 q 715 665 736 668 q 672 661 694 661 q 645 662 658 661 q 619 668 632 663 q 599 679 608 672 q 585 697 590 686 q 572 726 576 711 q 561 754 568 740 q 533 783 550 775 q 496 790 515 792 q 458 776 476 788 q 426 747 439 765 q 394 676 403 715 q 383 602 386 640 q 382 526 381 564 q 388 446 383 486 q 407 367 393 406 q 432 316 415 340 q 470 274 449 292 q 517 249 492 257 q 568 247 542 240 q 597 258 583 250 q 624 275 611 265 q 654 310 642 288 q 656 353 667 333 q 626 353 640 354 q 601 349 618 351 q 566 344 585 346 q 531 341 547 342 q 507 343 515 340 q 495 355 500 346 q 490 372 490 364 q 488 424 489 393 q 490 488 488 456 q 501 549 493 521 q 526 589 510 576 q 578 610 547 606 q 642 617 610 615 q 706 617 674 618 q 810 613 758 615 q 914 603 863 611 q 953 590 933 600 q 981 561 972 579 q 987 535 983 554 q 992 508 990 515 q 994 385 999 446 q 978 263 989 324 q 967 218 974 239 q 953 175 960 197 q 910 93 938 132 q 847 28 883 54 z "},"h":{"ha":1024,"x_min":15,"x_max":1015,"o":"m 710 -82 q 663 -81 686 -82 q 619 -69 639 -81 q 599 -47 606 -62 q 594 -17 593 -32 q 603 110 600 47 q 610 238 607 174 q 615 299 611 265 q 617 361 618 333 l 617 364 q 524 367 571 369 q 431 363 476 365 q 426 195 426 279 q 422 28 425 111 q 422 -8 421 7 q 404 -29 424 -24 q 340 -38 375 -36 q 270 -40 306 -40 q 200 -37 235 -39 q 135 -32 165 -35 q 113 -31 128 -32 q 83 -29 99 -31 q 54 -26 68 -28 q 35 -21 40 -24 q 18 14 15 -8 q 24 53 21 33 q 31 92 28 72 q 45 273 42 183 q 54 454 49 363 q 54 825 64 639 q 47 898 51 861 q 35 971 42 935 q 32 993 32 982 q 36 1015 32 1004 q 47 1029 39 1022 q 64 1039 54 1036 q 244 1063 163 1058 q 411 1057 325 1068 q 429 1049 421 1056 q 442 1033 438 1042 q 447 1013 447 1024 q 447 990 447 1001 q 434 812 442 900 q 421 633 426 724 l 421 626 q 458 628 440 628 q 496 629 476 628 q 559 630 528 629 q 622 629 590 631 q 619 802 619 717 q 619 975 618 888 l 619 1089 q 625 1105 619 1099 q 638 1115 631 1111 q 652 1119 644 1118 q 664 1121 660 1121 q 748 1122 713 1122 q 815 1119 783 1121 q 877 1117 846 1118 q 950 1117 908 1115 q 972 1115 961 1117 q 990 1108 982 1114 q 1000 1096 997 1104 q 1003 1081 1003 1088 q 999 1039 1001 1060 q 994 997 997 1018 q 965 613 967 806 q 978 226 963 421 q 983 151 981 189 q 993 75 986 113 q 1008 1 1000 31 q 1014 -45 1015 -28 q 997 -69 1013 -62 q 942 -78 982 -76 q 890 -78 922 -78 q 825 -80 858 -79 q 760 -81 792 -81 q 710 -82 729 -82 z "},"i":{"ha":492,"x_min":15,"x_max":500,"o":"m 407 -14 q 352 -16 383 -17 q 297 -14 321 -15 q 193 -11 244 -12 q 89 -8 142 -10 q 65 -8 76 -7 q 40 -6 53 -8 q 20 8 25 -3 q 16 35 15 19 q 21 67 17 50 q 28 99 25 83 q 51 257 43 172 q 63 429 60 342 q 63 602 65 517 q 54 763 60 688 q 40 897 49 838 q 24 993 32 957 q 19 1031 18 1018 q 28 1049 21 1043 q 47 1056 35 1056 q 76 1058 60 1057 q 265 1071 168 1065 q 458 1075 363 1076 q 495 1063 490 1074 q 488 1015 500 1051 q 443 848 460 938 q 418 665 426 758 q 408 479 410 571 q 411 305 407 388 q 422 154 415 222 q 436 42 428 86 q 435 4 440 21 q 407 -14 431 -12 z "},"j":{"ha":879,"x_min":0,"x_max":878,"o":"m 500 -39 q 321 -33 406 -56 q 170 44 236 -10 q 60 176 104 97 q 4 351 17 256 q 3 416 0 383 q 35 464 6 449 q 69 478 44 469 q 125 495 94 486 q 190 512 156 504 q 252 522 224 519 q 299 522 281 525 q 321 504 318 518 q 355 433 329 463 q 410 393 381 403 q 467 397 440 383 q 501 451 493 410 q 506 510 506 472 q 503 590 507 549 q 494 669 500 632 q 479 726 488 707 q 353 712 419 722 q 224 690 288 701 q 148 704 172 681 q 115 769 124 728 q 106 865 106 811 q 103 971 106 919 q 102 1014 103 989 q 119 1046 101 1039 q 214 1069 156 1058 q 340 1085 272 1079 q 483 1093 408 1092 q 625 1091 557 1094 q 751 1079 693 1088 q 844 1056 808 1071 q 865 1047 858 1050 q 875 1040 872 1044 q 877 1026 878 1035 q 874 1004 876 1018 q 868 949 871 990 q 862 860 865 907 q 853 772 858 813 q 840 719 847 732 q 824 715 838 714 q 797 717 811 715 q 770 718 782 718 q 758 713 758 718 q 792 557 779 638 q 806 398 806 476 q 790 247 806 319 q 738 117 774 175 q 643 17 701 58 q 500 -39 585 -24 z "},"k":{"ha":956,"x_min":-10,"x_max":953,"o":"m 213 -39 q 165 -42 189 -40 q 118 -43 142 -43 q 93 -37 107 -43 q 75 -21 79 -32 q 72 1 71 -14 q 74 35 72 17 q 78 69 75 53 q 81 93 81 85 q 86 271 88 182 q 85 450 85 360 q 78 587 83 519 q 67 722 74 654 q 45 865 60 794 q 4 1001 31 935 q 1 1011 4 1006 q -6 1038 -10 1022 q 10 1061 -3 1053 q 23 1067 17 1065 q 36 1069 29 1068 q 138 1083 88 1076 q 240 1094 189 1090 q 297 1097 268 1097 q 353 1100 325 1097 q 372 1103 363 1101 q 393 1103 382 1104 q 407 1099 400 1101 q 417 1090 414 1096 q 423 1072 422 1082 q 425 1051 424 1063 q 433 951 431 1001 q 436 850 435 901 l 436 810 q 450 826 444 821 q 518 892 482 863 q 593 947 554 921 q 683 1001 638 976 q 778 1043 729 1026 q 796 1049 785 1046 q 818 1056 807 1053 q 839 1058 829 1058 q 856 1054 849 1058 q 865 1039 863 1047 q 869 1021 868 1031 q 876 963 872 992 q 886 904 879 933 q 900 850 892 876 q 918 797 908 824 q 924 776 921 788 q 922 756 926 765 q 903 737 918 747 q 870 717 888 726 q 835 700 853 708 q 810 688 818 692 q 715 632 761 661 q 625 569 669 603 q 583 536 604 553 q 542 500 561 519 q 554 492 549 496 q 563 485 560 488 q 634 445 597 464 q 708 408 671 426 q 797 374 751 389 q 892 351 843 358 q 919 347 906 349 q 944 338 933 346 q 952 322 951 332 q 950 306 953 313 q 935 249 943 278 q 919 193 926 221 q 904 135 911 164 q 890 78 897 107 q 876 42 885 60 q 857 11 868 25 q 831 -5 847 -1 q 795 -8 814 -8 q 757 -2 776 -7 q 724 8 738 3 q 622 59 669 28 q 529 128 574 90 q 480 173 504 150 q 433 219 456 196 l 433 201 q 438 119 436 160 q 442 36 440 78 q 442 19 442 28 q 439 1 442 10 q 415 -28 435 -19 q 400 -33 411 -31 q 385 -35 389 -35 q 299 -37 342 -37 q 213 -39 256 -37 z "},"l":{"ha":753,"x_min":18,"x_max":749,"o":"m 126 -25 q 92 -26 110 -26 q 58 -18 74 -25 q 36 1 44 -11 q 25 28 28 14 q 22 101 18 67 q 29 172 25 138 q 36 243 33 207 q 53 421 47 335 q 53 638 54 529 q 47 854 51 746 q 43 902 46 878 q 43 950 40 926 q 49 978 43 958 q 61 1006 54 999 q 93 1022 74 1018 q 136 1030 114 1029 q 182 1032 158 1031 q 253 1035 218 1033 q 325 1036 289 1036 q 357 1035 340 1036 q 389 1032 374 1035 q 415 1021 403 1029 q 431 1001 426 1013 q 437 949 440 976 q 429 896 433 922 q 397 641 414 768 q 374 385 379 514 q 386 386 378 386 q 428 390 407 386 q 471 396 450 393 q 544 403 507 399 q 617 411 581 407 q 657 417 636 414 q 699 424 678 421 q 728 417 714 425 q 742 393 743 408 l 742 392 q 748 360 747 376 q 749 328 749 344 q 746 275 749 301 q 740 222 743 249 q 735 136 736 179 q 733 49 733 93 q 733 23 733 36 q 725 -1 732 10 q 708 -16 719 -11 q 685 -21 696 -21 q 522 -23 603 -26 q 360 -17 442 -19 q 243 -19 301 -15 q 126 -25 185 -22 z "},"m":{"ha":1214,"x_min":17,"x_max":1217,"o":"m 363 -7 q 304 -12 333 -10 q 246 -11 275 -14 q 147 -8 203 -10 q 49 1 92 -6 q 31 10 36 3 q 23 27 25 17 q 21 49 21 38 q 19 72 21 61 q 17 128 17 100 q 19 183 18 156 q 40 492 26 339 q 76 797 54 644 q 90 881 83 839 q 103 963 96 922 q 110 1003 107 982 q 124 1042 114 1024 q 140 1062 126 1056 q 168 1068 154 1068 q 270 1065 219 1069 q 372 1057 321 1060 q 406 1055 389 1056 q 438 1044 424 1054 q 456 1022 450 1036 q 465 993 463 1008 q 485 920 476 957 q 506 846 494 883 q 533 758 518 801 q 565 672 549 715 q 578 641 572 657 q 590 610 583 625 q 616 685 604 647 q 639 763 628 724 q 672 865 656 814 q 704 968 689 917 q 719 1015 713 992 q 733 1061 725 1038 q 753 1081 742 1076 q 770 1083 761 1083 q 788 1082 779 1082 q 903 1073 846 1076 q 1018 1076 960 1069 l 1026 1076 q 1047 1077 1038 1079 q 1061 1067 1057 1075 q 1068 1046 1067 1057 q 1072 1024 1069 1035 q 1078 949 1076 986 q 1083 874 1081 911 q 1096 728 1088 806 q 1115 571 1104 650 q 1139 415 1126 492 q 1165 272 1151 338 q 1190 153 1178 206 q 1211 74 1201 101 q 1210 49 1217 58 q 1191 33 1204 39 q 1161 24 1178 26 q 1128 19 1144 21 q 1067 14 1100 17 q 1001 9 1035 11 q 933 5 967 7 q 874 0 900 3 q 830 8 843 -3 q 814 57 817 18 q 811 124 811 90 q 810 192 811 158 q 803 318 807 256 q 801 443 800 381 q 803 528 801 486 q 807 613 806 569 q 735 442 767 529 q 678 265 704 354 q 663 236 672 242 q 643 231 654 231 q 566 226 603 229 q 489 226 529 222 q 469 232 479 228 q 454 243 460 236 q 432 279 440 260 q 417 318 424 299 q 385 417 399 367 q 358 517 371 467 q 388 101 363 307 q 394 67 390 85 q 400 33 397 50 q 392 4 404 14 q 363 -7 379 -6 z "},"n":{"ha":1053,"x_min":11,"x_max":1038,"o":"m 632 -68 q 588 -61 607 -72 q 556 -30 569 -50 q 533 15 543 -10 q 514 63 522 39 q 474 181 494 115 q 431 315 453 247 q 385 447 408 382 q 340 564 363 513 q 374 304 351 440 q 408 44 397 168 q 393 -3 411 13 q 336 -24 375 -18 q 236 -29 297 -29 q 93 -29 175 -29 q 35 -17 58 -29 q 17 31 11 -4 q 54 494 49 263 q 60 958 60 725 q 88 1001 60 985 q 158 1025 115 1017 q 252 1037 201 1033 q 347 1043 303 1040 q 388 1042 372 1044 q 413 1031 403 1039 q 431 1008 424 1022 q 450 972 439 994 q 486 891 464 940 q 534 783 508 842 q 587 663 560 725 q 639 543 614 601 q 685 436 664 485 q 718 357 706 388 q 715 428 719 375 q 705 553 711 482 q 690 703 699 624 q 673 853 681 782 q 659 977 665 924 q 651 1049 653 1031 q 658 1078 649 1068 q 684 1091 668 1088 q 721 1094 700 1094 q 761 1092 742 1093 q 882 1089 821 1086 q 1001 1081 943 1092 q 1030 1059 1022 1076 q 1038 1018 1038 1042 q 1033 969 1038 994 q 1028 922 1029 943 q 1011 710 1017 822 q 1001 482 1006 597 q 992 254 997 367 q 976 42 988 142 q 975 22 976 35 q 971 -3 974 10 q 963 -28 968 -17 q 953 -43 958 -39 q 891 -62 935 -57 q 797 -67 847 -67 q 701 -67 747 -68 q 632 -68 656 -65 z "},"o":{"ha":936,"x_min":8,"x_max":935,"o":"m 843 267 q 734 118 801 178 q 587 28 667 58 q 422 -3 507 -3 q 260 24 336 -4 q 125 109 185 51 q 38 253 65 167 q 10 447 8 340 q 40 656 11 553 q 122 848 68 760 q 253 986 175 936 q 490 1083 379 1068 q 686 1063 600 1099 q 831 949 772 1028 q 912 762 889 869 q 919 526 935 654 q 843 267 904 399 m 408 696 q 334 556 353 621 q 322 444 315 492 q 358 372 329 397 q 424 349 386 346 q 503 388 461 353 q 582 496 546 422 q 620 649 625 583 q 583 744 615 714 q 501 765 550 774 q 408 696 453 756 z "},"p":{"ha":889,"x_min":8,"x_max":889,"o":"m 401 -47 q 385 -53 396 -51 q 361 -56 374 -54 q 336 -57 349 -57 q 318 -57 324 -57 q 255 -56 286 -57 q 192 -54 224 -54 q 159 -54 181 -54 q 114 -53 138 -54 q 69 -51 90 -53 q 39 -44 47 -49 q 22 -29 32 -40 q 11 -11 13 -18 q 10 12 8 0 q 14 35 11 24 q 59 442 46 239 q 76 853 72 646 q 78 932 78 893 q 69 1008 79 971 q 69 1024 67 1015 q 73 1035 69 1029 q 81 1044 76 1040 q 115 1062 96 1056 q 151 1072 133 1068 q 268 1090 210 1086 q 385 1093 326 1093 q 540 1082 463 1094 q 686 1033 618 1069 q 763 976 728 1010 q 823 902 797 943 q 865 816 849 861 q 885 724 881 771 q 878 607 889 668 q 840 510 867 556 q 778 424 813 464 q 729 379 756 400 q 675 340 703 358 q 615 315 647 324 q 550 301 582 307 q 400 306 475 289 q 391 308 396 307 q 382 310 386 308 q 383 299 383 304 q 385 289 383 294 q 392 208 389 249 q 399 128 394 168 q 406 69 401 99 q 414 13 410 40 q 417 -24 418 -8 q 401 -47 414 -39 m 374 633 q 417 628 394 628 q 460 631 439 628 q 509 641 485 633 q 554 663 533 649 q 567 672 561 667 q 578 685 574 678 q 579 728 589 704 q 551 768 569 753 q 525 784 540 778 q 494 794 510 790 q 450 806 472 801 q 404 807 428 810 q 394 806 401 807 q 385 803 388 806 q 381 797 382 801 q 381 789 381 792 q 376 711 376 750 q 374 633 375 672 z "},"q":{"ha":936,"x_min":8,"x_max":935,"o":"m 544 -182 q 504 -169 521 -186 q 487 -144 493 -158 q 474 -115 481 -131 q 449 -60 461 -87 q 421 -4 436 -32 q 299 11 358 -4 q 188 58 239 26 q 98 139 138 90 q 38 253 58 188 q 10 447 8 340 q 40 656 11 553 q 122 848 68 760 q 253 986 175 936 q 490 1083 379 1068 q 686 1063 600 1099 q 831 949 772 1028 q 912 762 889 869 q 919 526 935 654 q 843 267 904 399 q 766 149 813 199 q 663 64 719 99 q 701 20 682 42 q 739 -22 719 -1 q 753 -39 746 -31 q 761 -58 760 -47 q 758 -75 763 -67 q 746 -89 753 -83 q 672 -130 711 -112 q 594 -164 633 -147 q 569 -174 582 -169 q 544 -182 557 -179 m 483 404 q 490 392 486 397 q 496 381 493 388 q 541 427 519 399 q 582 496 563 456 q 620 649 625 583 q 583 744 615 714 q 501 765 550 774 q 408 696 453 756 q 333 556 351 619 q 322 444 315 492 q 336 450 329 447 q 346 456 343 453 q 365 465 353 458 q 389 476 376 471 q 413 485 401 482 q 432 486 425 489 q 448 473 440 483 q 462 450 456 463 q 474 424 468 438 q 483 404 479 411 z "},"r":{"ha":897,"x_min":8,"x_max":889,"o":"m 740 -71 q 719 -76 731 -78 q 696 -69 707 -74 q 644 -41 668 -58 q 597 -4 619 -24 q 563 24 579 10 q 532 54 547 39 q 501 88 517 71 q 471 122 486 104 q 467 128 469 125 q 428 172 447 150 q 392 217 408 193 q 394 172 393 193 q 399 128 396 150 q 406 69 401 99 q 414 13 410 40 q 417 -24 418 -8 q 401 -47 414 -39 q 385 -53 396 -51 q 361 -56 374 -54 q 336 -57 349 -57 q 318 -57 324 -57 q 255 -56 286 -57 q 192 -54 224 -54 q 159 -54 181 -54 q 114 -53 138 -54 q 69 -51 90 -53 q 39 -44 47 -49 q 22 -29 32 -40 q 11 -11 13 -18 q 10 12 8 0 q 14 35 11 24 q 59 442 46 239 q 76 853 72 646 q 78 932 78 893 q 69 1008 79 971 q 69 1024 67 1015 q 73 1035 69 1029 q 81 1044 76 1040 q 115 1062 96 1056 q 151 1072 133 1068 q 268 1090 210 1086 q 385 1093 326 1093 q 540 1082 463 1094 q 686 1033 618 1069 q 763 976 728 1010 q 823 902 797 943 q 865 816 849 861 q 885 724 881 771 q 878 607 889 668 q 840 510 867 556 q 778 424 813 464 q 729 379 756 400 q 675 340 703 358 q 661 334 668 338 q 647 328 654 331 q 849 179 735 239 l 850 179 q 872 156 869 174 q 869 128 875 143 q 856 99 864 114 q 838 69 847 83 q 822 46 828 56 q 806 21 817 38 q 784 -15 796 4 q 760 -49 772 -33 q 740 -71 749 -65 m 374 633 q 417 628 394 628 q 460 631 439 628 q 509 641 485 633 q 554 663 533 649 q 567 672 561 667 q 578 685 574 678 q 579 728 589 704 q 551 768 569 753 q 525 784 540 778 q 494 794 510 790 q 450 806 472 801 q 404 807 428 810 q 394 806 401 807 q 385 803 388 806 q 381 797 382 801 q 381 789 381 792 q 376 711 376 750 q 374 633 375 672 z "},"s":{"ha":876,"x_min":4,"x_max":874,"o":"m 726 28 q 570 -28 663 -12 q 381 -37 478 -44 q 194 -3 285 -31 q 43 68 104 24 q 13 118 21 85 q 8 191 4 151 q 26 272 13 231 q 59 344 39 313 q 103 394 79 376 q 151 406 126 413 q 235 368 192 390 q 316 331 279 346 q 378 317 353 317 q 406 346 403 317 q 384 381 407 365 q 325 414 361 397 q 247 450 289 431 q 169 496 204 469 q 67 631 93 553 q 59 788 42 710 q 132 935 76 867 q 275 1040 188 1003 q 458 1079 364 1079 q 634 1045 551 1079 q 778 944 717 1011 q 868 785 840 878 q 863 751 874 769 q 831 713 851 732 q 785 674 811 693 q 733 639 760 656 q 684 610 707 622 q 649 590 661 597 q 622 581 638 585 q 588 601 607 578 q 562 642 574 619 q 536 683 550 664 q 505 715 522 701 q 465 728 488 728 q 426 719 439 728 q 410 697 413 711 q 419 667 408 683 q 451 636 429 650 q 527 594 488 611 q 607 560 567 578 q 688 517 647 542 q 769 454 729 493 q 831 350 813 410 q 843 229 849 290 q 808 114 838 168 q 726 28 778 60 z "},"t":{"ha":800,"x_min":0,"x_max":804,"o":"m 399 -40 q 326 -43 363 -42 q 254 -44 290 -44 q 216 -40 235 -43 q 185 -25 197 -36 q 174 -3 178 -18 q 169 31 171 13 q 169 65 168 49 q 169 93 169 82 q 184 412 172 253 q 232 726 196 571 q 234 739 233 731 q 238 758 235 747 q 160 740 199 750 q 83 719 122 729 q 62 714 72 717 q 40 711 51 711 q 22 721 29 713 q 14 740 14 729 l 6 865 q 2 899 4 878 q 0 944 0 921 q 3 986 0 967 q 14 1015 6 1006 q 37 1033 24 1026 q 64 1042 50 1039 q 131 1058 97 1051 q 196 1071 164 1064 q 315 1084 256 1082 q 436 1086 375 1086 q 518 1083 476 1086 q 600 1076 560 1081 q 683 1067 640 1072 q 765 1051 725 1063 q 783 1044 774 1049 q 797 1033 792 1040 q 803 1017 801 1028 q 804 993 804 1006 q 803 969 804 981 q 800 950 801 957 q 791 898 796 924 q 781 846 786 872 q 777 819 778 833 q 772 793 776 806 q 762 776 769 783 q 743 765 754 768 q 726 763 735 763 q 710 765 718 764 q 641 776 675 769 q 571 786 607 782 l 547 786 q 542 675 542 731 q 544 564 543 619 q 556 338 547 450 q 581 113 564 225 q 586 75 583 93 q 589 38 589 57 q 589 13 590 25 q 581 -10 588 1 q 547 -31 571 -24 q 474 -40 511 -40 q 399 -40 436 -40 z "},"u":{"ha":921,"x_min":17,"x_max":906,"o":"m 888 315 q 813 152 864 224 q 695 35 763 81 q 549 -31 628 -11 q 392 -42 471 -51 q 239 7 313 -33 q 107 122 165 47 q 52 234 72 167 q 24 381 32 301 q 19 546 17 460 q 33 714 22 632 q 60 868 43 796 q 99 994 78 940 q 136 1031 108 1018 q 199 1048 164 1044 q 274 1047 235 1051 q 343 1031 313 1043 q 391 999 374 1018 q 403 954 408 979 q 374 843 390 900 q 348 730 358 786 q 335 617 338 674 q 349 507 333 561 q 380 453 357 475 q 431 425 403 432 q 486 426 458 418 q 533 463 514 435 q 569 570 563 504 q 570 709 576 636 q 549 852 564 782 q 521 969 535 922 q 531 1008 515 989 q 576 1041 547 1026 q 642 1065 606 1056 q 714 1076 679 1075 q 777 1066 749 1076 q 818 1031 806 1056 q 851 940 836 994 q 876 819 865 885 q 894 682 888 753 q 903 544 901 611 q 901 417 906 476 q 888 315 897 357 z "},"v":{"ha":1135,"x_min":-7,"x_max":1140,"o":"m 442 -40 q 412 -41 424 -40 q 392 -41 400 -42 q 378 -37 383 -40 q 367 -24 372 -33 q 351 14 356 -6 q 339 53 346 33 q 299 183 319 118 q 260 314 279 247 q 208 464 236 390 q 150 611 181 538 q 106 714 128 663 q 56 814 83 765 q 31 858 44 836 q 4 900 18 879 q -3 913 0 907 q -7 925 -7 918 q 6 949 -7 940 q 102 991 50 976 q 207 1017 154 1006 q 243 1025 219 1019 q 293 1035 267 1031 q 343 1043 319 1040 q 378 1042 367 1046 q 401 1023 393 1036 q 417 996 410 1010 q 448 915 436 957 q 469 829 460 872 q 504 662 489 746 q 531 492 519 578 q 538 416 535 454 q 544 340 542 378 q 567 413 556 376 q 589 486 578 450 q 664 738 626 613 q 740 989 701 863 q 745 1003 743 996 q 754 1018 747 1011 q 790 1030 767 1028 q 841 1030 814 1032 q 894 1024 868 1028 q 936 1017 919 1019 q 1027 999 982 1010 q 1114 969 1072 989 q 1133 955 1125 965 q 1140 933 1140 944 q 1136 911 1140 922 q 1128 889 1132 900 q 1033 660 1083 772 q 928 435 982 547 q 832 224 876 331 q 738 13 788 118 q 717 -20 726 -11 q 682 -31 707 -29 q 561 -35 626 -33 q 442 -40 496 -36 z "},"w":{"ha":1214,"x_min":17,"x_max":1217,"o":"m 788 -44 q 770 -46 779 -46 q 753 -43 761 -46 q 733 -24 742 -39 q 719 23 725 0 q 704 69 713 46 q 672 172 689 121 q 639 275 656 222 q 616 351 628 313 q 590 426 604 390 q 578 395 583 411 q 565 364 572 379 q 533 278 549 321 q 506 190 518 235 q 485 117 494 154 q 465 43 476 81 q 456 15 463 29 q 438 -7 450 0 q 406 -17 424 -17 q 372 -19 389 -18 q 270 -27 321 -22 q 168 -31 219 -32 q 140 -24 154 -31 q 124 -4 126 -18 q 110 35 114 14 q 103 75 107 56 q 90 157 96 115 q 76 239 83 199 q 40 546 54 393 q 19 853 26 699 q 17 908 18 881 q 19 964 17 936 q 21 988 21 976 q 23 1010 21 1000 q 31 1028 25 1021 q 49 1036 36 1035 q 147 1044 92 1043 q 246 1049 203 1046 q 363 1044 304 1050 q 392 1033 379 1042 q 400 1004 404 1024 q 394 970 397 988 q 388 936 390 953 q 358 521 363 731 q 385 621 371 571 q 417 719 399 671 q 432 758 424 739 q 454 794 440 778 q 469 806 460 801 q 489 811 479 810 q 566 812 529 815 q 643 807 603 808 q 663 801 654 806 q 678 772 672 796 q 735 596 704 683 q 807 425 767 508 q 803 509 806 467 q 801 594 801 551 q 803 719 800 657 q 810 846 807 782 q 811 913 811 879 q 814 981 811 947 q 830 1030 817 1019 q 874 1038 843 1040 q 933 1032 900 1035 q 1001 1027 967 1029 q 1067 1023 1035 1025 q 1128 1018 1100 1021 q 1161 1013 1144 1015 q 1191 1003 1178 1010 q 1210 988 1204 997 q 1211 963 1217 978 q 1190 883 1201 935 q 1165 766 1178 832 q 1139 623 1151 700 q 1115 467 1126 546 q 1096 310 1104 388 q 1083 164 1088 232 q 1078 89 1081 126 q 1072 13 1076 51 q 1068 -9 1069 1 q 1061 -29 1067 -19 q 1047 -40 1057 -39 q 1026 -39 1038 -42 l 1018 -39 q 903 -35 960 -32 q 788 -44 846 -39 z "},"x":{"ha":919,"x_min":3,"x_max":917,"o":"m 799 7 q 774 -12 788 -1 q 745 -30 760 -22 q 715 -42 731 -37 q 686 -43 700 -46 q 673 -39 683 -43 q 660 -32 663 -35 q 615 3 635 -18 q 576 46 596 24 q 533 95 553 69 q 492 147 513 121 q 460 189 472 168 q 426 147 443 165 q 386 95 407 121 q 343 46 365 69 q 303 3 324 24 q 258 -32 283 -18 q 245 -39 256 -35 q 232 -43 235 -43 q 203 -42 218 -46 q 173 -30 188 -37 q 144 -12 158 -22 q 119 7 131 -1 q 90 31 108 15 q 54 66 72 47 q 22 103 36 85 q 6 135 8 122 q 6 158 3 146 q 15 181 10 171 q 33 206 24 194 q 54 231 43 218 q 151 341 101 288 q 244 453 200 394 q 253 465 249 460 q 261 476 257 469 q 201 572 231 525 q 144 667 172 619 q 79 776 111 721 q 21 889 47 831 q 8 921 14 904 q 4 953 3 938 q 14 979 6 967 q 33 1000 22 992 q 74 1030 56 1018 q 109 1050 92 1042 q 147 1066 126 1058 q 196 1083 168 1074 q 234 1089 214 1090 q 269 1076 254 1088 q 306 1029 293 1057 q 333 976 318 1001 q 397 874 365 925 q 460 772 428 824 l 585 976 q 613 1029 600 1001 q 650 1076 626 1057 q 685 1089 664 1088 q 722 1083 706 1090 q 771 1066 750 1074 q 809 1050 792 1058 q 844 1030 826 1042 q 886 1000 863 1018 q 906 979 897 992 q 914 953 914 967 q 910 921 915 938 q 897 889 904 904 q 839 776 871 831 q 774 667 807 721 q 717 572 746 619 q 657 476 688 525 q 665 465 661 469 q 674 453 669 460 q 768 341 718 394 q 864 231 818 288 q 885 206 875 218 q 903 181 894 194 q 913 158 910 171 q 914 135 917 146 q 897 103 911 122 q 864 66 882 85 q 828 31 846 47 q 799 7 810 15 z "},"y":{"ha":993,"x_min":-6,"x_max":1011,"o":"m 524 -31 q 463 -35 499 -32 q 390 -38 426 -39 q 322 -31 353 -37 q 276 -3 290 -24 q 261 47 265 15 q 259 116 257 78 q 267 196 261 154 q 279 276 272 238 q 292 349 286 315 q 301 404 299 382 q 153 594 221 494 q 36 804 85 694 q 20 836 29 817 q 5 876 11 856 q -3 916 -1 897 q 3 946 -6 935 q 39 981 14 961 q 95 1018 64 1000 q 162 1051 126 1036 q 228 1076 197 1067 q 284 1084 260 1085 q 318 1071 308 1083 q 341 1032 328 1061 q 370 963 354 1003 q 402 879 386 924 q 433 794 418 835 q 461 723 449 754 q 482 678 474 692 q 526 806 501 733 q 577 946 551 878 q 626 1065 603 1014 q 665 1131 649 1117 q 708 1140 675 1139 q 783 1135 740 1142 q 869 1114 825 1128 q 947 1079 914 1100 q 996 1030 981 1058 q 994 968 1011 1001 q 829 664 919 819 q 649 340 739 508 q 645 304 643 331 q 653 244 647 278 q 666 174 658 211 q 679 102 674 136 q 687 42 685 68 q 683 6 689 17 q 656 -17 676 -10 q 613 -26 636 -24 q 565 -29 589 -29 q 524 -31 540 -29 z "},"z":{"ha":829,"x_min":7,"x_max":819,"o":"m 592 -37 q 491 -50 542 -47 q 390 -51 440 -53 q 276 -43 332 -50 q 165 -21 219 -36 q 114 -6 139 -14 q 65 13 89 1 q 33 54 38 25 q 30 114 29 85 q 29 174 31 143 q 26 217 28 196 q 22 260 25 238 q 20 273 22 263 q 15 286 18 283 q 10 310 7 297 q 22 336 13 324 q 42 360 31 349 q 65 383 54 372 q 153 467 108 425 q 238 553 197 508 q 341 662 289 608 q 442 774 393 715 q 445 778 444 776 q 447 781 446 779 q 414 776 429 778 q 390 774 399 775 q 255 752 322 763 q 118 735 188 742 q 91 735 104 733 q 68 743 78 736 q 57 758 61 747 q 51 781 53 768 q 47 806 49 793 q 46 826 46 818 q 44 926 43 876 q 49 1025 46 976 q 51 1036 50 1031 q 54 1044 51 1042 q 63 1050 60 1050 q 68 1056 64 1054 q 93 1063 75 1060 q 131 1070 111 1067 q 169 1076 151 1074 q 196 1078 188 1078 q 356 1093 276 1086 q 515 1101 435 1100 q 583 1102 549 1101 q 650 1103 617 1103 q 695 1102 672 1103 q 740 1094 718 1101 q 769 1083 756 1090 q 790 1064 783 1076 q 801 1028 801 1047 q 801 989 801 1008 q 801 911 803 950 q 810 833 799 872 q 815 807 811 826 q 819 781 819 788 q 810 758 818 768 q 792 738 801 747 q 724 669 760 701 q 654 600 688 636 q 598 533 625 568 q 539 467 571 499 q 498 426 519 446 q 456 386 476 407 q 419 345 436 367 q 383 301 401 324 q 371 286 379 297 q 385 285 378 286 q 399 285 392 285 q 531 294 465 282 q 663 324 597 307 q 699 332 681 328 q 736 333 718 336 q 756 320 749 331 q 769 296 764 310 q 776 267 774 282 q 781 239 778 251 q 793 160 788 199 q 803 82 799 122 q 803 55 806 68 q 792 31 800 42 q 778 19 786 24 q 764 11 771 15 q 671 -18 717 -8 q 631 -30 651 -25 q 592 -37 611 -35 z "},"{":{"ha":717,"x_min":15,"x_max":742,"o":"m 671 -179 q 460 -206 571 -211 q 253 -162 350 -200 q 219 -147 235 -156 q 189 -126 204 -137 q 133 -81 160 -106 q 90 -24 107 -56 q 69 60 69 15 q 74 153 67 107 q 92 246 81 200 q 104 287 97 267 q 117 328 111 307 q 126 381 124 353 q 117 432 128 408 q 92 458 110 449 q 57 476 74 468 q 32 485 42 476 q 19 506 22 494 q 20 529 15 517 q 38 549 25 542 q 54 557 46 554 q 71 563 63 560 q 90 574 76 565 q 106 588 103 582 q 117 626 117 606 q 114 662 118 644 q 104 697 110 679 q 92 738 99 717 q 79 778 86 758 q 49 921 56 847 q 57 1065 42 994 q 92 1167 68 1118 q 153 1254 115 1217 q 199 1290 174 1274 q 250 1317 224 1306 q 265 1326 258 1321 q 281 1333 272 1331 q 310 1347 296 1340 q 339 1358 324 1353 q 463 1384 399 1378 q 589 1383 526 1390 q 623 1378 606 1382 q 653 1363 640 1374 q 672 1325 668 1347 q 679 1281 678 1303 q 681 1236 681 1260 q 682 1154 682 1196 q 679 1072 682 1113 q 674 1049 678 1061 q 663 1029 671 1036 q 642 1020 654 1022 q 619 1017 631 1018 q 540 1013 579 1015 q 465 996 501 1011 q 438 972 446 989 q 429 935 429 956 q 434 891 429 914 q 446 849 439 868 q 463 798 453 822 q 481 749 474 774 q 485 712 485 731 q 482 675 486 693 q 471 647 479 660 q 453 622 463 633 q 410 585 433 601 q 363 557 388 568 q 406 534 385 547 q 442 501 426 521 q 462 457 456 482 q 467 408 468 432 q 459 321 465 364 q 451 233 453 278 q 453 201 451 222 q 464 172 456 179 q 483 169 469 168 q 504 169 497 169 q 581 183 543 174 q 657 190 618 192 q 679 189 668 190 q 700 182 690 188 q 719 158 713 175 q 728 119 725 140 q 733 78 732 99 q 735 43 733 57 q 738 3 736 29 q 741 -52 740 -24 q 740 -106 742 -81 q 729 -143 738 -131 q 703 -166 719 -158 q 671 -179 688 -174 z "},"}":{"ha":715,"x_min":-26,"x_max":700,"o":"m 464 -162 q 255 -206 365 -200 q 44 -179 144 -211 q 13 -166 29 -174 q -14 -143 -4 -158 q -24 -106 -22 -131 q -25 -52 -26 -81 q -22 3 -24 -24 q -18 43 -19 29 q -16 78 -17 57 q -12 119 -15 99 q -2 158 -8 140 q 17 182 4 175 q 37 189 26 188 q 58 190 47 190 q 135 183 97 192 q 213 169 174 174 q 233 169 219 169 q 251 172 246 168 q 263 201 260 179 q 265 233 265 222 q 257 321 263 278 q 249 408 251 364 q 254 457 249 432 q 275 501 260 482 q 311 534 290 521 q 354 557 332 547 q 306 585 329 568 q 264 622 283 601 q 233 675 242 647 q 236 749 225 711 q 253 798 243 774 q 271 849 263 822 q 282 891 276 868 q 287 935 288 914 q 278 972 286 956 q 251 996 271 989 q 176 1013 215 1011 q 97 1017 136 1015 q 74 1020 86 1018 q 54 1029 63 1022 q 42 1049 46 1036 q 38 1072 39 1061 q 34 1154 33 1113 q 35 1236 35 1196 q 43 1325 35 1281 q 51 1346 46 1336 q 64 1363 56 1356 q 92 1378 75 1374 q 126 1383 110 1382 q 253 1384 189 1390 q 376 1358 317 1378 q 406 1347 392 1353 q 436 1333 421 1340 q 451 1326 443 1331 q 465 1317 458 1321 q 563 1254 522 1293 q 625 1167 601 1217 q 660 1065 649 1118 q 668 921 675 994 q 638 778 661 847 q 624 738 631 758 q 611 697 618 717 q 602 662 606 679 q 599 626 599 644 q 611 588 599 607 q 626 574 614 582 q 646 563 639 565 q 663 557 654 560 q 678 549 671 554 q 695 529 690 542 q 697 506 700 517 q 683 485 693 494 q 660 476 674 476 q 625 458 643 468 q 599 432 607 449 q 590 381 588 408 q 599 328 592 353 q 612 287 604 307 q 624 246 619 267 q 642 153 635 200 q 647 60 650 107 q 626 -24 644 15 q 583 -81 610 -56 q 526 -126 556 -106 q 496 -147 511 -137 q 464 -162 481 -156 z "},"~":{"ha":851,"x_min":8,"x_max":840,"o":"m 621 267 q 585 257 604 260 q 546 258 565 254 q 483 281 514 265 q 424 315 453 297 q 410 324 419 318 q 392 335 401 329 q 372 344 382 340 q 357 347 363 347 q 334 340 349 347 q 304 322 319 332 q 275 301 289 311 q 254 288 261 292 q 224 272 240 278 q 190 268 207 265 q 165 279 181 269 q 135 301 150 289 q 106 325 119 313 q 86 344 92 338 q 68 365 79 351 q 46 394 57 379 q 26 425 35 410 q 15 451 17 440 q 19 481 8 465 q 43 510 31 496 q 106 569 72 542 q 178 619 139 597 q 228 645 201 633 q 283 656 256 657 q 323 647 304 656 q 360 626 342 638 q 392 603 376 615 q 425 581 408 592 q 436 574 428 579 q 448 576 443 575 q 458 581 453 578 q 499 603 479 592 q 538 631 519 615 q 567 654 553 642 q 601 672 582 667 q 632 674 619 678 q 699 638 668 660 q 761 594 729 615 q 776 584 765 592 q 799 568 788 576 q 820 551 810 560 q 833 539 831 543 q 839 517 840 529 q 833 496 838 506 q 779 411 810 451 q 713 335 749 371 q 671 296 693 314 q 621 267 649 278 z "},"":{"ha":347,"x_min":0,"x_max":0,"o":""},"":{"ha":793,"x_min":15,"x_max":776,"o":"m 388 -64 q 365 -67 381 -65 q 342 -65 349 -68 q 321 -35 321 -57 q 324 -2 319 -18 q 332 29 329 14 q 333 42 333 36 q 335 54 333 47 q 238 74 285 57 q 153 122 192 90 q 85 199 114 153 q 39 308 56 246 q 19 492 15 399 q 51 666 22 585 q 136 810 81 747 q 271 907 192 874 q 260 933 265 919 q 249 958 254 946 q 243 972 246 965 q 239 986 240 979 q 242 1010 236 1000 q 260 1028 249 1021 q 286 1038 271 1035 q 315 1044 301 1042 q 385 1053 350 1051 q 454 1056 419 1056 q 491 1051 471 1056 q 514 1031 511 1047 q 514 1015 515 1024 q 510 1000 513 1007 l 493 942 q 581 924 539 939 q 659 881 624 910 q 719 808 694 853 q 754 700 744 764 q 760 676 756 689 q 762 650 764 663 q 747 627 760 638 q 704 613 735 617 q 654 606 692 610 q 574 597 617 601 q 495 592 532 593 q 447 594 458 590 q 440 609 442 596 q 435 638 438 622 q 427 668 432 654 q 413 686 422 682 q 353 664 376 696 q 319 581 329 632 q 313 472 308 529 q 336 374 317 414 q 372 334 353 340 q 407 340 392 328 q 431 381 422 353 q 436 446 440 410 q 442 470 435 461 q 461 484 449 479 q 490 490 474 489 q 524 492 507 492 q 631 497 583 494 q 738 501 679 500 q 758 498 751 503 q 768 486 765 493 q 772 474 771 479 q 772 467 772 468 q 768 368 776 419 q 739 269 760 317 q 685 181 718 221 q 606 118 651 142 q 540 88 574 101 q 553 52 547 69 q 568 17 560 35 q 578 1 572 8 q 588 -15 585 -7 q 584 -34 592 -26 q 565 -44 576 -42 q 522 -53 544 -51 q 478 -57 500 -54 q 433 -60 456 -58 q 388 -64 411 -61 z "},"":{"ha":806,"x_min":24,"x_max":778,"o":"m 732 -18 q 703 -25 718 -25 q 672 -24 688 -25 q 549 -12 610 -17 q 426 -7 489 -7 q 294 -10 360 -6 q 161 -18 228 -15 q 122 -20 142 -19 q 82 -18 101 -21 q 65 -12 74 -15 q 50 -1 57 -8 q 38 26 43 7 q 29 67 32 46 q 25 110 26 89 q 24 142 24 131 q 24 185 24 164 q 29 228 25 206 q 35 247 32 238 q 44 265 38 257 q 76 285 56 278 q 95 290 82 286 q 122 297 108 293 q 148 304 136 300 q 164 313 160 308 q 169 335 169 319 q 168 358 169 351 q 167 380 168 369 q 164 401 165 390 q 145 400 154 400 q 131 399 136 400 q 101 399 115 397 q 72 408 86 401 q 47 438 56 418 q 40 458 43 444 q 33 485 36 471 q 29 512 31 499 q 31 533 28 525 q 36 547 33 540 q 44 557 39 553 q 76 571 57 567 q 122 578 101 578 q 101 704 108 639 q 105 807 97 756 q 132 906 113 858 q 209 1013 160 972 q 317 1072 258 1054 q 441 1085 376 1090 q 565 1056 506 1081 q 675 985 625 1031 q 754 875 725 939 q 773 812 768 844 q 778 746 778 779 q 777 713 778 733 q 774 672 776 693 q 767 633 772 651 q 754 607 763 615 q 731 593 743 597 q 706 586 718 589 q 672 582 694 583 q 623 581 649 581 q 574 584 597 582 q 540 589 551 586 q 514 601 526 592 q 499 625 501 611 q 495 658 494 642 q 499 690 496 675 q 495 775 504 740 q 471 826 486 810 q 439 836 456 842 q 413 801 422 831 q 408 715 404 771 q 436 572 411 658 q 526 564 479 571 q 564 560 544 564 q 583 540 578 554 q 585 522 585 535 q 585 493 586 508 q 584 464 585 478 q 582 443 583 450 q 576 420 581 432 q 560 404 571 408 q 538 401 549 400 q 515 404 526 403 q 498 405 507 404 q 481 406 489 406 q 485 375 483 390 q 489 344 488 360 q 490 340 489 342 q 490 335 490 338 q 563 338 526 338 q 638 338 600 338 q 662 338 646 338 q 695 336 678 338 q 728 332 713 335 q 750 324 743 329 q 761 308 757 318 q 765 289 765 299 q 765 237 767 263 q 761 185 763 211 q 760 110 760 147 q 760 35 761 72 q 753 3 760 15 q 744 -9 750 -4 q 732 -18 739 -14 z "},"":{"ha":1186,"x_min":-8,"x_max":1196,"o":"m 226 0 q 208 0 218 -6 q 190 13 197 6 q 147 60 168 36 q 103 107 126 83 q 52 156 78 132 q 3 207 26 181 q -6 235 -8 219 q 10 261 -3 250 q 25 271 14 265 q 49 282 36 276 q 74 292 63 288 q 92 300 86 297 q 204 338 147 317 q 172 438 182 385 q 165 547 163 492 q 181 654 167 601 q 219 753 194 707 q 146 777 183 767 q 72 803 108 788 q 46 815 60 808 q 21 829 32 821 q 3 848 10 838 q 0 871 -3 858 q 17 894 3 879 q 39 917 32 910 q 119 999 79 957 q 199 1083 158 1042 q 224 1092 210 1094 q 246 1075 239 1090 q 306 986 269 1026 q 381 907 343 946 q 383 903 383 904 q 601 944 493 951 q 799 888 710 936 q 813 906 804 897 q 882 980 849 942 q 942 1063 915 1018 q 947 1071 944 1067 q 951 1081 949 1075 q 972 1092 958 1092 q 994 1083 985 1093 q 1072 1001 1035 1043 q 1150 921 1110 960 q 1161 910 1156 915 q 1172 899 1167 906 q 1176 894 1174 899 q 1179 890 1178 890 q 1193 858 1196 878 q 1174 828 1190 839 q 1086 789 1133 801 q 994 760 1039 776 q 974 751 983 756 q 954 744 965 747 q 1008 572 1003 667 q 957 374 1013 476 q 951 363 954 368 q 943 351 947 357 q 973 340 958 346 q 1003 329 988 335 q 1072 307 1038 318 q 1140 281 1107 296 q 1164 268 1151 275 q 1183 250 1176 261 q 1188 226 1190 239 q 1174 204 1185 213 q 1171 200 1174 200 q 1161 188 1167 193 q 1149 178 1156 183 q 1069 95 1108 138 q 989 11 1029 53 q 963 2 978 0 q 942 19 949 4 q 881 108 918 68 q 807 188 844 149 q 793 206 799 194 q 690 159 744 176 q 579 138 635 142 q 469 143 524 133 q 365 176 414 153 q 299 106 331 142 q 244 26 268 69 q 237 12 240 19 q 226 0 233 4 m 508 517 q 542 472 518 488 q 594 455 565 457 q 651 463 622 453 q 703 494 681 472 q 731 547 725 517 q 729 604 738 576 q 699 654 721 632 q 647 683 678 676 q 581 679 611 692 q 530 642 550 667 q 503 585 510 618 q 508 517 496 551 z "},"":{"ha":974,"x_min":-11,"x_max":1006,"o":"m 518 -31 q 457 -35 493 -32 q 384 -38 421 -39 q 316 -31 347 -37 q 271 -3 285 -24 q 255 51 258 17 q 254 129 251 86 q 239 128 247 128 q 224 128 231 128 q 194 128 208 128 q 165 131 179 128 q 126 142 139 133 q 111 164 114 151 q 108 192 108 178 q 104 221 107 206 q 103 235 104 225 q 101 258 101 246 q 102 280 101 269 q 106 294 103 290 q 121 304 110 300 q 144 308 132 308 q 182 310 164 311 q 219 310 200 310 l 279 310 q 283 332 282 321 q 288 353 285 343 l 203 353 q 174 352 188 353 q 144 354 160 351 q 123 359 133 357 q 106 367 113 361 q 90 388 93 374 q 87 416 88 403 q 85 444 86 429 q 82 460 83 449 q 81 482 81 471 q 81 503 81 493 q 85 518 82 514 q 101 528 89 525 q 124 533 113 532 q 190 533 157 535 q 31 804 96 663 q 15 836 24 817 q -1 876 6 856 q -9 916 -7 897 q -3 946 -11 935 q 33 981 8 961 q 90 1018 58 1000 q 156 1051 121 1036 q 223 1076 192 1067 q 278 1084 254 1085 q 313 1071 303 1083 q 335 1032 322 1061 q 365 963 349 1003 q 397 879 381 924 q 428 794 413 835 q 456 723 443 754 q 476 678 468 692 q 521 806 496 733 q 572 946 546 878 q 620 1065 597 1014 q 660 1131 643 1117 q 702 1140 669 1139 q 777 1135 735 1142 q 864 1114 819 1128 q 942 1079 908 1100 q 990 1030 975 1058 q 989 968 1006 1001 q 876 757 936 864 q 753 538 815 650 q 776 536 764 538 q 799 532 788 535 q 817 519 813 528 q 824 503 821 511 q 831 463 828 483 q 833 422 833 442 q 830 397 833 410 q 811 372 826 383 q 781 362 800 365 q 743 357 763 358 q 697 355 719 356 q 651 354 675 354 q 643 340 646 346 q 639 315 639 333 q 697 315 668 315 q 754 314 725 315 q 788 313 771 314 q 819 308 804 313 q 838 295 833 304 q 843 279 842 286 q 851 238 849 258 q 853 197 854 218 q 850 172 853 185 q 832 149 847 160 q 802 138 821 142 q 764 133 783 135 q 716 131 740 131 q 668 131 692 131 q 681 53 676 88 q 678 6 685 18 q 651 -17 671 -10 q 607 -26 631 -24 q 559 -29 583 -29 q 518 -31 535 -29 z "},"":{"ha":0,"x_min":0,"x_max":0,"o":""},"":{"ha":750,"x_min":18,"x_max":733,"o":"m 443 379 q 390 372 417 375 q 338 371 364 369 q 303 374 321 371 q 272 392 286 376 q 258 420 263 403 q 253 456 254 438 q 249 531 250 493 q 250 606 249 568 q 192 603 221 604 q 135 603 164 603 q 106 603 119 603 q 79 606 93 603 q 42 621 57 610 q 28 650 31 632 q 24 686 25 668 q 21 724 24 704 q 19 743 21 729 q 18 772 18 757 q 19 801 18 788 q 22 821 19 815 q 38 833 26 828 q 60 840 49 839 q 95 842 78 843 q 131 842 113 842 q 190 841 161 840 q 250 843 219 842 q 248 906 249 875 q 247 969 247 938 q 249 997 249 983 q 251 1025 249 1011 q 257 1045 254 1036 q 267 1061 260 1054 q 281 1071 274 1068 q 294 1076 288 1074 q 332 1079 314 1079 q 369 1082 350 1079 q 389 1083 375 1082 q 418 1085 403 1085 q 447 1084 433 1085 q 467 1081 460 1083 q 478 1065 474 1076 q 485 1043 483 1054 q 487 1008 488 1025 q 486 972 486 990 q 485 911 485 942 q 488 850 486 881 q 563 849 525 850 q 638 847 600 849 q 670 846 654 846 q 700 839 686 846 q 717 822 714 833 q 724 801 721 811 q 731 748 728 774 q 733 694 733 722 q 731 660 733 678 q 713 631 728 643 q 683 615 701 619 q 647 610 665 611 q 570 606 608 607 q 493 607 532 606 q 492 535 493 571 q 490 464 492 500 q 488 432 489 449 q 482 403 488 415 q 465 385 475 389 q 443 379 454 382 m 158 -8 q 133 -8 146 -8 q 108 -6 121 -8 q 76 11 86 0 q 63 40 65 22 q 60 78 60 60 q 57 117 60 97 q 56 137 57 122 q 54 167 54 151 q 55 196 54 182 q 58 217 56 210 q 71 229 61 224 q 92 236 81 235 q 124 239 107 239 q 156 238 140 239 q 289 241 222 236 q 424 247 356 246 q 611 243 517 247 q 640 242 625 243 q 667 236 654 242 q 681 218 678 229 q 688 196 685 207 q 696 86 696 142 q 693 51 696 69 q 676 19 690 33 q 651 5 667 10 q 619 -1 635 0 q 499 -5 560 -8 q 379 -3 439 -1 q 269 -6 324 -4 q 158 -8 214 -8 z "},"":{"ha":676,"x_min":15,"x_max":664,"o":"m 551 225 q 524 204 539 214 q 490 197 510 194 q 460 210 475 200 q 432 232 444 219 q 378 287 404 258 q 326 344 351 315 l 218 253 q 193 232 206 242 q 167 217 181 222 q 142 218 153 213 q 124 231 132 224 q 83 265 103 247 q 46 303 64 283 q 25 331 35 315 q 18 365 15 346 q 31 396 21 381 q 53 424 40 411 q 107 476 79 451 q 163 525 135 501 q 123 567 143 546 q 83 610 103 588 q 65 631 75 621 q 49 653 56 642 q 40 672 43 663 q 36 690 36 682 q 47 721 36 707 q 72 748 58 736 q 99 775 86 760 q 113 789 103 779 q 133 809 122 799 q 153 828 143 819 q 171 839 164 838 q 190 837 179 842 q 211 824 201 832 q 235 799 224 813 q 258 772 247 785 q 299 727 278 749 q 340 685 319 706 q 386 728 364 707 q 432 769 408 749 q 453 788 443 779 q 475 804 464 797 q 514 817 493 817 q 543 806 529 817 q 571 781 558 794 q 597 754 583 767 q 611 740 601 750 q 631 719 621 731 q 651 698 642 708 q 661 681 660 688 q 646 642 664 663 q 620 617 633 629 q 593 594 607 606 q 548 554 569 575 q 504 511 526 533 q 601 397 553 457 q 622 373 613 386 q 638 346 632 360 q 637 322 642 332 q 625 303 632 311 q 589 263 607 282 q 551 225 571 243 z "},"":{"ha":665,"x_min":11,"x_max":656,"o":"m 419 719 q 367 675 399 692 q 302 656 335 658 q 240 665 269 653 q 194 708 211 678 q 181 769 178 739 q 203 824 185 800 q 251 864 221 849 q 315 879 281 879 q 375 864 347 879 q 419 825 403 849 q 438 773 436 801 q 419 719 439 744 m 117 385 q 90 385 103 385 q 65 388 78 385 q 47 393 56 390 q 33 403 39 396 q 19 431 22 414 q 17 468 17 450 q 14 506 17 486 q 13 525 14 511 q 11 554 11 539 q 12 583 11 569 q 15 603 13 596 q 28 615 18 610 q 49 621 38 619 q 81 624 64 624 q 113 622 97 624 q 247 626 181 621 q 382 632 314 631 q 571 628 475 632 q 600 627 585 628 q 626 621 615 626 q 642 603 638 614 q 647 582 646 593 q 656 475 656 529 q 653 442 656 460 q 638 411 651 425 q 611 397 628 401 q 579 390 594 393 q 458 388 518 385 q 338 389 399 390 q 227 386 282 388 q 117 385 172 385 m 426 200 q 374 156 406 172 q 309 138 342 140 q 247 147 276 135 q 201 190 218 160 q 188 251 185 221 q 210 305 192 281 q 258 344 228 329 q 322 360 288 360 q 382 344 354 360 q 426 306 410 329 q 444 253 443 282 q 426 200 446 225 z "},"":{"ha":351,"x_min":18,"x_max":338,"o":"m 300 733 q 217 677 265 688 q 124 684 168 667 q 49 742 79 701 q 18 840 18 783 q 33 910 18 875 q 72 973 47 944 q 127 1022 96 1001 q 192 1047 158 1042 q 206 1046 197 1047 q 220 1040 214 1044 q 228 1026 226 1035 q 221 1006 229 1018 q 210 967 210 986 q 233 943 211 949 q 295 913 271 935 q 328 861 319 890 q 331 799 338 832 q 300 733 325 765 z "},"":{"ha":351,"x_min":13,"x_max":333,"o":"m 160 619 q 144 619 153 618 q 131 626 136 621 q 124 639 125 631 q 129 660 122 647 q 140 698 140 679 q 117 722 139 717 q 56 753 79 732 q 22 804 32 775 q 19 867 13 833 q 50 932 26 900 q 133 988 85 978 q 227 981 182 999 q 303 923 272 964 q 333 825 333 882 q 319 756 333 790 q 280 692 304 721 q 224 644 256 664 q 160 619 193 624 z "},"":{"ha":699,"x_min":18,"x_max":685,"o":"m 647 743 q 564 687 613 697 q 471 693 515 676 q 396 751 426 710 q 365 849 365 792 q 379 918 365 883 q 417 981 393 953 q 473 1030 442 1010 q 539 1056 504 1050 q 553 1056 544 1057 q 567 1049 561 1054 q 575 1036 574 1044 q 568 1015 576 1028 q 558 976 557 994 q 581 953 558 958 q 642 922 618 943 q 676 871 667 900 q 678 808 685 842 q 647 743 672 775 m 300 735 q 217 678 265 689 q 124 685 168 668 q 49 742 79 701 q 18 840 18 783 q 33 910 18 875 q 72 973 47 944 q 127 1022 96 1001 q 192 1047 158 1042 q 206 1047 197 1049 q 220 1041 214 1046 q 228 1028 226 1036 q 221 1006 229 1019 q 210 968 210 986 q 233 943 211 950 q 295 913 271 935 q 328 862 319 890 q 331 800 338 833 q 300 735 325 767 z "},"":{"ha":697,"x_min":13,"x_max":679,"o":"m 506 624 q 491 624 499 622 q 477 630 483 625 q 469 643 471 635 q 476 665 468 651 q 487 703 488 685 q 464 728 486 721 q 402 758 426 736 q 369 809 378 781 q 366 871 360 838 q 397 936 372 904 q 481 992 432 982 q 574 986 529 1003 q 649 928 618 969 q 679 831 679 888 q 665 761 679 796 q 626 698 650 726 q 572 649 603 669 q 506 624 540 629 m 160 615 q 144 615 153 614 q 131 622 136 617 q 124 635 125 626 q 129 656 122 643 q 140 694 140 675 q 117 718 139 713 q 56 749 79 728 q 22 800 32 771 q 19 863 13 829 q 50 928 26 896 q 133 984 85 974 q 227 978 182 994 q 303 920 272 961 q 333 822 333 879 q 319 753 333 788 q 280 690 304 718 q 224 641 256 661 q 160 615 193 621 z "},"":{"ha":1049,"x_min":15,"x_max":1036,"o":"m 626 265 q 677 169 674 222 q 653 72 681 115 q 573 8 625 29 q 460 6 521 -14 q 405 40 426 15 q 374 94 383 64 q 367 158 365 125 q 381 219 368 190 q 418 269 394 249 q 476 297 442 290 q 556 298 514 304 q 626 265 599 292 m 279 264 q 329 166 326 219 q 304 69 332 113 q 224 5 276 26 q 111 3 172 -17 q 38 63 61 19 q 18 156 15 107 q 49 245 21 204 q 128 296 76 286 q 209 297 167 303 q 279 264 251 290 m 982 258 q 1025 195 1014 229 q 1031 128 1036 161 q 1007 65 1026 94 q 958 17 988 36 q 892 -9 929 -3 q 814 -3 854 -15 q 759 33 781 8 q 728 87 738 57 q 722 150 719 117 q 736 213 724 183 q 772 263 749 242 q 831 290 796 283 q 912 291 869 297 q 982 258 954 285 z "},"":{"ha":843,"x_min":-3,"x_max":857,"o":"m 596 28 q 406 42 492 17 q 257 120 321 68 q 150 247 193 172 q 89 407 107 321 q 71 407 79 407 q 53 408 63 407 q 24 418 36 410 q 13 435 15 424 q 10 458 10 446 q 7 481 10 469 q 6 494 7 485 q 4 512 4 503 q 5 529 4 521 q 8 542 6 538 q 38 553 15 550 q 56 554 47 554 q 75 554 65 554 q 75 570 75 563 q 76 586 75 578 q 60 587 68 586 q 46 589 53 588 q 17 597 26 592 q 4 615 7 606 q 1 638 1 626 q 0 661 1 650 q -1 674 0 665 q -3 691 -3 682 q -2 708 -3 700 q 1 721 -1 717 q 31 733 8 731 q 60 734 46 735 q 88 733 74 733 l 104 733 q 201 928 136 839 q 325 1042 254 999 q 474 1098 396 1085 q 631 1093 551 1111 q 779 1024 710 1075 q 808 980 807 1003 q 797 931 810 957 q 765 876 785 904 q 729 818 744 849 q 719 797 725 810 q 705 771 713 783 q 688 749 697 758 q 669 739 679 740 q 647 746 661 738 q 618 765 633 754 q 590 785 603 775 q 568 797 576 794 q 492 793 525 813 q 440 738 458 774 l 496 738 q 522 735 510 736 q 546 732 535 735 q 560 722 557 729 q 565 708 563 715 q 570 676 568 692 q 572 643 572 660 q 570 622 572 632 q 556 603 568 611 q 533 594 547 597 q 504 590 518 592 q 460 588 482 589 q 415 589 438 588 l 415 558 q 459 558 438 558 q 503 557 481 558 q 530 556 517 557 q 554 553 543 556 q 568 542 565 549 q 572 529 571 536 q 578 496 575 513 q 579 463 581 479 q 577 442 579 453 q 563 424 575 432 q 540 415 554 417 q 511 411 526 413 q 486 409 499 410 q 461 408 474 408 q 508 365 481 381 q 551 357 525 356 q 606 365 576 358 q 664 378 635 371 q 717 388 693 385 q 756 387 740 392 q 771 365 771 382 q 786 317 771 349 q 818 253 801 286 q 846 189 835 219 q 849 144 857 158 q 806 101 836 121 q 737 66 775 82 q 660 40 699 50 q 596 28 622 31 z "},"":{"ha":964,"x_min":15,"x_max":951,"o":"m 543 571 q 516 569 529 569 q 488 569 503 568 q 441 571 468 569 q 394 575 414 572 q 383 588 383 576 q 381 610 382 599 q 381 661 378 635 q 390 808 383 736 q 407 953 396 881 l 419 1032 q 424 1051 422 1042 q 431 1069 425 1061 q 438 1079 432 1076 q 451 1082 444 1082 q 499 1080 475 1082 q 547 1076 524 1078 q 564 1076 556 1076 q 579 1071 572 1075 q 593 1046 588 1064 q 601 1012 597 1029 q 611 976 606 994 q 625 935 618 956 q 639 894 632 914 q 645 879 642 888 q 651 864 649 871 q 663 900 658 882 q 675 936 668 918 q 690 985 682 961 q 706 1035 699 1010 q 713 1056 710 1046 q 719 1078 715 1067 q 729 1088 722 1085 q 744 1088 736 1090 q 799 1084 772 1085 q 854 1086 826 1083 l 858 1086 q 875 1081 871 1089 q 878 1072 878 1076 q 881 1061 879 1067 q 883 1025 883 1043 q 886 989 883 1007 q 897 883 889 940 q 913 772 904 826 q 930 674 921 718 q 946 610 939 631 q 937 590 951 594 q 907 583 922 586 q 847 579 881 581 q 786 575 813 578 q 765 577 771 572 q 758 601 760 582 q 757 633 757 617 q 756 665 757 650 q 753 726 754 696 q 751 785 751 756 q 753 825 751 804 q 754 865 754 846 q 720 784 735 825 q 693 700 706 743 q 686 687 690 689 q 676 683 682 685 q 640 681 657 683 q 603 682 622 679 q 586 690 592 682 q 576 706 579 697 q 569 725 572 715 q 555 772 561 749 q 542 819 549 796 q 546 721 543 771 q 556 622 549 671 q 558 606 557 614 q 561 590 560 599 q 558 576 564 581 q 543 571 551 572 m 196 576 q 163 576 179 576 q 129 576 146 575 q 113 578 122 576 q 99 585 104 579 q 92 610 92 592 q 92 638 92 628 q 99 781 93 710 q 119 924 104 853 q 121 930 121 926 q 122 938 121 933 q 88 929 104 935 q 53 919 71 924 q 33 917 42 917 q 25 921 28 917 q 21 929 22 925 q 20 958 21 944 q 18 986 19 971 q 17 1001 18 992 q 15 1022 15 1011 q 17 1041 15 1032 q 22 1054 18 1050 q 44 1065 31 1063 q 74 1073 60 1069 q 104 1079 89 1076 q 158 1085 131 1085 q 213 1086 185 1085 q 249 1085 231 1086 q 286 1081 267 1083 q 324 1077 306 1079 q 360 1069 342 1075 q 368 1067 364 1068 q 375 1061 372 1065 q 378 1044 379 1057 q 376 1025 378 1032 q 372 1001 374 1013 q 368 978 371 989 q 366 965 365 971 q 364 953 367 960 q 350 940 361 943 q 343 940 347 939 q 335 940 339 940 q 304 945 319 943 q 274 950 289 947 l 263 950 q 260 900 260 925 q 261 850 261 875 q 278 646 263 747 q 280 629 279 638 q 281 613 281 621 q 278 592 283 601 q 271 585 275 588 q 263 582 267 583 q 229 577 246 578 q 196 576 213 576 z "},"":{"ha":582,"x_min":19,"x_max":564,"o":"m 108 385 q 87 385 97 385 q 65 388 76 385 q 51 393 58 390 q 38 403 43 396 q 26 431 29 413 q 24 468 24 450 q 22 506 24 486 q 21 525 22 511 q 19 554 19 539 q 19 583 19 569 q 22 603 19 596 q 51 621 29 618 q 106 622 75 625 q 219 626 163 621 q 332 632 275 631 q 492 628 413 632 q 515 627 503 628 q 539 621 528 626 q 552 603 550 614 q 557 582 554 593 q 562 529 560 556 q 564 475 564 503 q 561 442 564 460 q 547 411 558 425 q 526 397 540 401 q 499 390 513 393 q 397 388 449 385 q 294 389 346 390 q 201 386 247 388 q 108 385 156 385 z "},"`":{"ha":446,"x_min":8,"x_max":443,"o":"m 424 683 q 402 678 417 681 q 372 674 388 675 q 342 672 357 672 q 319 674 328 671 q 274 692 296 681 q 233 719 253 704 q 141 797 183 753 q 63 889 99 840 q 49 907 58 894 q 32 933 40 919 q 17 960 24 947 q 10 982 10 974 q 17 1004 8 996 q 38 1017 25 1013 q 65 1024 50 1022 q 94 1026 81 1025 q 104 1029 97 1026 q 114 1032 111 1032 q 186 1049 150 1042 q 258 1058 222 1056 q 294 1049 281 1061 q 308 1024 301 1042 q 322 986 315 1007 q 333 947 328 965 q 342 919 339 928 q 376 825 357 871 q 424 736 396 779 q 430 725 426 731 q 436 714 433 719 q 424 683 443 692 z "},"|":{"ha":464,"x_min":-4,"x_max":450,"o":"m 336 -254 q 306 -260 321 -261 q 275 -258 290 -260 q 163 -253 218 -256 q 50 -256 107 -251 q 37 -258 43 -257 q 24 -257 31 -258 q -1 -235 4 -251 q -3 -222 -4 -228 q 0 -211 -1 -217 q 11 -162 6 -186 q 21 -114 17 -137 q 27 -65 25 -90 q 32 -15 29 -40 q 43 93 38 39 q 53 203 49 147 q 56 290 56 246 q 58 378 57 333 q 57 695 60 538 q 44 1013 54 853 q 42 1046 44 1025 q 44 1083 40 1067 q 46 1101 42 1092 q 61 1108 50 1110 q 92 1107 76 1107 q 122 1107 107 1107 q 225 1111 174 1107 q 328 1114 276 1115 q 364 1117 344 1114 q 401 1122 383 1121 q 432 1117 419 1122 q 447 1096 444 1113 q 447 1067 450 1082 q 431 931 440 999 q 415 794 421 864 q 400 597 408 694 q 388 400 392 500 q 382 263 385 331 q 376 125 379 194 q 375 -10 374 57 q 375 -146 376 -78 q 373 -185 374 -165 q 365 -224 372 -204 q 336 -254 356 -246 z "},"!":{"ha":421,"x_min":31,"x_max":396,"o":"m 126 376 q 83 385 97 378 q 63 401 68 392 q 57 422 57 411 q 57 440 57 432 q 51 557 54 490 q 44 694 47 624 q 38 831 40 764 q 36 946 36 897 q 60 1009 36 989 q 122 1035 83 1029 q 206 1037 160 1040 q 294 1031 251 1033 q 329 1028 311 1031 q 363 1019 347 1025 q 387 1003 378 1014 q 396 976 396 993 q 392 924 396 964 q 381 828 388 883 q 366 712 374 774 q 351 595 358 650 q 339 500 344 540 q 332 447 333 460 q 319 390 328 403 q 297 376 310 376 l 126 376 m 360 108 q 326 28 357 61 q 253 -22 296 -6 q 162 -32 210 -37 q 76 6 114 -26 q 41 57 51 26 q 34 120 31 88 q 53 183 38 153 q 96 231 68 213 q 185 263 138 260 q 273 249 233 267 q 338 196 313 232 q 360 108 363 160 z "}}}
